<svg width="1440" height="1155" viewBox="0 0 1440 1155" fill="none" xmlns="http://www.w3.org/2000/svg">
<path d="M1269.63 32.3267L1290.38 52.9999L1311.14 32.3267" stroke="#FFA98C" stroke-width="5" stroke-linecap="round" stroke-linejoin="round"/>
<path d="M1269.63 90.2119L1290.38 110.885L1311.14 90.2119" stroke="#FFA98C" stroke-width="5" stroke-linecap="round" stroke-linejoin="round"/>
<path d="M1269.63 3.38428L1290.38 24.0576L1311.14 3.38428" stroke="#FFA98C" stroke-width="5" stroke-linecap="round" stroke-linejoin="round"/>
<path d="M1269.63 61.2695L1290.38 81.9428L1311.14 61.2695" stroke="#FFA98C" stroke-width="5" stroke-linecap="round" stroke-linejoin="round"/>
<path d="M776.111 1020.06C800.823 1039.83 825.536 1039.83 850.248 1020.06C874.96 1000.29 899.672 1000.29 924.385 1020.06C949.097 1039.83 973.809 1039.83 998.521 1020.06C1023.23 1000.29 1047.95 1000.29 1072.66 1020.06C1097.37 1039.83 1122.08 1039.83 1146.8 1020.06C1171.51 1000.29 1196.22 1000.29 1220.93 1020.06C1245.64 1039.83 1270.36 1039.83 1295.07 1020.06C1319.78 1000.29 1344.49 1000.29 1369.21 1020.06C1393.92 1039.83 1418.63 1039.83 1443.34 1020.06C1468.05 1000.29 1492.77 1000.29 1517.48 1020.06" stroke="#FFA98C" stroke-width="2"/>
<path d="M958.25 958.594C982.963 936.521 1007.67 936.521 1032.39 958.594C1057.1 980.667 1081.81 980.667 1106.52 958.594C1131.24 936.521 1155.95 936.521 1180.66 958.594C1205.37 980.667 1230.09 980.667 1254.8 958.594C1279.51 936.521 1304.22 936.521 1328.93 958.594C1353.65 980.667 1378.36 980.667 1403.07 958.594C1427.78 936.521 1452.5 936.521 1477.21 958.594C1501.92 980.667 1526.63 980.667 1551.34 958.594C1576.06 936.521 1600.77 936.521 1625.48 958.594C1650.19 980.667 1674.91 980.667 1699.62 958.594" stroke="#FFA98C" stroke-width="2"/>
<path d="M776.111 1078.82C800.823 1098.59 825.536 1098.59 850.248 1078.82C874.96 1059.05 899.672 1059.05 924.385 1078.82C949.097 1098.59 973.809 1098.59 998.521 1078.82C1023.23 1059.05 1047.95 1059.05 1072.66 1078.82C1097.37 1098.59 1122.08 1098.59 1146.8 1078.82C1171.51 1059.05 1196.22 1059.05 1220.93 1078.82C1245.64 1098.59 1270.36 1098.59 1295.07 1078.82C1319.78 1059.05 1344.49 1059.05 1369.21 1078.82C1393.92 1098.59 1418.63 1098.59 1443.34 1078.82C1468.05 1059.05 1492.77 1059.05 1517.48 1078.82" stroke="#FFA98C" stroke-width="2"/>
<path d="M868.421 1138.56C893.133 1158.33 917.846 1158.33 942.558 1138.56C967.27 1118.79 991.982 1118.79 1016.69 1138.56C1041.41 1158.33 1066.12 1158.33 1090.83 1138.56C1115.54 1118.79 1140.26 1118.79 1164.97 1138.56C1189.68 1158.33 1214.39 1158.33 1239.11 1138.56C1263.82 1118.79 1288.53 1118.79 1313.24 1138.56C1337.95 1158.33 1362.67 1158.33 1387.38 1138.56C1412.09 1118.79 1436.8 1118.79 1461.52 1138.56C1486.23 1158.33 1510.94 1158.33 1535.65 1138.56C1560.36 1118.79 1585.08 1118.79 1609.79 1138.56" stroke="#FFA98C" stroke-width="2"/>
<circle cy="163.626" r="54.5146" fill="#FFA98C" fill-opacity="0.44"/>
<circle cx="46.0121" cy="131.718" r="31.908" fill="#FFA98C" fill-opacity="0.44"/>
</svg>
