<?xml version="1.0"?>
<svg xmlns="http://www.w3.org/2000/svg" id="Layer_5" enable-background="new 0 0 64 64" height="512px" viewBox="0 0 64 64" width="512px" class=""><g><g><g><g><path d="m17.19 4c.43-1.17 1.56-2 2.88-2h3.86c1.7 0 3.07 1.37 3.07 3.07v.21c0 .47-.11.94-.32 1.37l-3.68 7.35h-10l-3.48-5.23c-.34-.5-.52-1.09-.52-1.7 0-1.7 1.37-3.07 3.07-3.07z" fill="#a0d468" data-original="#A0D468" class="active-path" style="fill:#69E781" data-old_color="#a0d468"/></g><g><path d="m26.41 17.41c-.36.37-.86.59-1.41.59h-1-12-1c-1.1 0-2-.9-2-2 0-.55.22-1.05.59-1.41.36-.37.86-.59 1.41-.59h2 10 2c1.1 0 2 .9 2 2 0 .55-.22 1.05-.59 1.41z" fill="#ccd1d9" data-original="#CCD1D9" class=""/></g><g><path d="m31.31 28.97c1.08 1.62 1.85 3.41 2.28 5.29-1.85 2.93-3.59 5.94-3.59 8.74 0 1.63.26 3.21.75 4.68h-.01c-1.46 1.92-3.34 3.5-5.52 4.6-2.16 1.1-4.62 1.72-7.22 1.72-8.84 0-16-7.16-16-16v-.16c0-3.15.94-6.24 2.69-8.87l7.31-10.97h12z" fill="#b4dd7f" data-original="#B4DD7F" class="" style="fill:#69E781" data-old_color="#b4dd7f"/></g><g><path d="m61.12 56.88c.54.54.88 1.29.88 2.12 0 1.66-1.34 3-3 3h-41.15c-1.13 0-2.17-.64-2.68-1.66l-.34-.68c-.51-1.02-1.55-1.66-2.68-1.66h-8.15c-.55 0-1.05-.22-1.41-.59-.37-.36-.59-.86-.59-1.41 0-1.1.9-2 2-2h14 8.59c.9 0 1.77.36 2.41 1s1.51 1 2.41 1h6.1c2.2 1.27 4.76 2 7.49 2s5.29-.73 7.49-2h6.51c.83 0 1.58.34 2.12.88z" fill="#fc6e51" data-original="#FC6E51" class="" style="fill:#C12020" data-old_color="#fc6e51"/></g><g><path d="m33.59 34.26c2.13-3.35 4.41-6.59 4.41-9.26 0 0 7 0 7 6v-1c0-8 6-8 6-8 0 3.5 2.25 7 4.5 10.5s4.5 7 4.5 10.5c0 4.14-1.68 7.89-4.4 10.6l-3.11 2.4c-2.2 1.27-4.76 2-7.49 2s-5.29-.73-7.49-2c-1.14-.67-2.19-1.47-3.11-2.4-1.65-1.64-2.91-3.66-3.65-5.92-.49-1.47-.75-3.05-.75-4.68 0-2.8 1.74-5.81 3.59-8.74z" fill="#ff826e" data-original="#FF826E" class="" style="fill:#FB5252" data-old_color="#ff826e"/></g><g><path d="m47 52h-4-2c-1.1 0-2-.9-2-2v-1l-.51-.51c-1.6-1.6-2.49-3.75-2.49-6 0-4.69 3.8-8.49 8.49-8.49h1.02c2.35 0 4.47.95 6 2.49 1.54 1.53 2.49 3.65 2.49 6 0 2.25-.89 4.4-2.49 6l-.51.51v1c0 1.1-.9 2-2 2z" fill="#e6e9ed" data-original="#E6E9ED" class=""/></g><g><path d="m50 41.41v1.18c0 .78-.63 1.41-1.41 1.41-.38 0-.74-.15-1-.41l-1.18-1.18c-.26-.26-.41-.62-.41-1 0-.78.63-1.41 1.41-1.41h1.18c.78 0 1.41.63 1.41 1.41z" fill="#969faa" data-original="#969FAA" class=""/></g><g><path d="m44 41.41c0 .38-.15.74-.41 1l-1.18 1.18c-.26.26-.62.41-1 .41-.78 0-1.41-.63-1.41-1.41v-1.18c0-.78.63-1.41 1.41-1.41h1.18c.78 0 1.41.63 1.41 1.41z" fill="#969faa" data-original="#969FAA" class=""/></g></g><g><path d="m37.778 49.192.222.222v.586c0 1.654 1.346 3 3 3h8c1.654 0 3-1.346 3-3v-.586l.222-.222c1.791-1.791 2.778-4.173 2.778-6.707 0-5.23-4.255-9.485-9.485-9.485h-1.029c-5.231 0-9.486 4.255-9.486 9.485 0 2.534.987 4.916 2.778 6.707zm6.707-14.192h1.029c4.128 0 7.486 3.358 7.486 7.485 0 2-.779 3.879-2.192 5.293l-.808.808v1.414c0 .551-.449 1-1 1h-1v-2h-2v2h-2v-2h-2v2h-1c-.551 0-1-.449-1-1v-1.414l-.808-.808c-1.413-1.414-2.192-3.293-2.192-5.293 0-4.127 3.358-7.485 7.485-7.485z" data-original="#000000" class="" style="fill:#04458F" data-old_color="#000000"/><path d="m46.879 44.293c.456.456 1.062.707 1.707.707 1.331 0 2.414-1.083 2.414-2.414v-1.172c0-1.331-1.083-2.414-2.414-2.414h-1.172c-1.331 0-2.414 1.083-2.414 2.414 0 .645.251 1.251.707 1.707zm.535-3.293h1.172c.228 0 .414.186.414.414v1.172c0 .338-.468.531-.707.293l-1.172-1.172c-.077-.077-.121-.184-.121-.293 0-.228.186-.414.414-.414z" data-original="#000000" class="" style="fill:#04458F" data-old_color="#000000"/><path d="m41.414 45c.645 0 1.251-.251 1.707-.707l1.172-1.172c.456-.456.707-1.062.707-1.707 0-1.331-1.083-2.414-2.414-2.414h-1.172c-1.331 0-2.414 1.083-2.414 2.414v1.172c0 1.331 1.083 2.414 2.414 2.414zm-.414-3.586c0-.228.186-.414.414-.414h1.172c.228 0 .414.186.414.414 0 .109-.044.216-.121.293l-1.172 1.172c-.239.238-.707.045-.707-.293z" data-original="#000000" class="" style="fill:#04458F" data-old_color="#000000"/><path d="m23 31.931c0-2.4-1.725-4.399-4-4.837v-2.094h-2v2.094c-2.275.437-4 2.436-4 4.837 0 2.268 1.536 4.234 3.735 4.784l2.045.512c1.307.326 2.22 1.496 2.22 2.843 0 1.616-1.314 2.93-2.931 2.93h-.139c-1.616 0-2.93-1.314-2.93-2.931v-1.069h-2v1.069c0 2.4 1.725 4.399 4 4.837v2.094h2v-2.094c2.275-.437 4-2.436 4-4.837 0-2.268-1.536-4.234-3.735-4.784l-2.045-.512c-1.307-.325-2.22-1.495-2.22-2.842 0-1.617 1.314-2.931 2.931-2.931h.139c1.616 0 2.93 1.314 2.93 2.931v.069z" data-original="#000000" class="" style="fill:#04458F" data-old_color="#000000"/><path d="m9.07 44.416-1.623 1.169c.57.792 1.23 1.52 1.963 2.166l1.322-1.5c-.62-.548-1.179-1.165-1.662-1.835z" data-original="#000000" class="" style="fill:#04458F" data-old_color="#000000"/><path d="m7 38v-.156c0-2.179.639-4.289 1.847-6.102l.792-1.188-1.664-1.109-.792 1.188c-1.428 2.143-2.183 4.637-2.183 7.211v.156c0 1.889.398 3.711 1.183 5.418l1.817-.836c-.664-1.442-1-2.984-1-4.582z" data-original="#000000" class="" style="fill:#04458F" data-old_color="#000000"/><path d="m59 55h-3.453c3.335-2.934 5.453-7.22 5.453-12 0-3.793-2.368-7.478-4.659-11.041-2.134-3.32-4.341-6.752-4.341-9.959v-1h-1c-.06 0-5.088.074-6.584 5.581-1.768-1.961-4.615-2.581-6.416-2.581h-1v1c0 1.908-1.443 4.326-3.088 6.907-.456-1.223-1.036-2.396-1.767-3.492l-6.356-9.533c1.27-.35 2.211-1.503 2.211-2.882 0-1.654-1.346-3-3-3h-.382l2.952-5.904c.281-.562.43-1.192.43-1.821v-.205c0-2.244-1.826-4.07-4.07-4.07h-3.86c-1.485 0-2.774.808-3.485 2h-4.515c-2.244 0-4.07 1.826-4.07 4.07 0 .807.236 1.587.684 2.258l2.448 3.672h-.132c-1.654 0-3 1.346-3 3 0 1.379.941 2.532 2.211 2.881l-6.356 9.533c-1.868 2.803-2.855 6.064-2.855 9.43v.156c0 6.489 3.658 12.136 9.017 15h-6.017c-1.654 0-3 1.346-3 3s1.346 3 3 3h8.146c.762 0 1.448.424 1.789 1.105l.342.684c.681 1.364 2.053 2.211 3.577 2.211h41.146c2.206 0 4-1.794 4-4s-1.794-4-4-4zm-20.094-28.928c1.682.223 5.094 1.144 5.094 4.928h2v-1c0-5.127 2.601-6.5 4.068-6.867.404 3.396 2.529 6.701 4.59 9.908 2.135 3.32 4.342 6.752 4.342 9.959 0 7.72-6.28 14-14 14s-14-6.28-14-14c0-2.844 2.092-6.106 4.115-9.261 1.735-2.706 3.386-5.282 3.791-7.667zm-8.471 23.514c.945 2.081 2.322 3.921 4.017 5.414h-3.038c-.635 0-1.258-.258-1.707-.707-.833-.834-1.942-1.293-3.121-1.293h-.571c1.635-.875 3.128-2.021 4.42-3.414zm-20.087-41.367c-.228-.342-.348-.739-.348-1.149 0-1.141.929-2.07 2.07-2.07h3.937c0 .024-.007.046-.007.07v3.93h2v-3.93c0-1.141.929-2.07 2.07-2.07h3.859c1.142 0 2.071.929 2.071 2.07v.205c0 .32-.076.64-.219.926l-3.399 6.799h-8.847zm.652 6.781h14c.551 0 1 .449 1 1s-.449 1-1 1h-14c-.551 0-1-.449-1-1s.449-1 1-1zm-8 23v-.156c0-2.971.871-5.848 2.519-8.32l7.016-10.524h10.93l7.016 10.524c.938 1.406 1.612 2.948 2.032 4.58-1.849 2.943-3.513 5.95-3.513 8.896 0 1.539.231 3.023.638 4.433-2.865 3.535-7.071 5.567-11.638 5.567-8.271 0-15-6.729-15-15zm56 23h-41.146c-.762 0-1.448-.424-1.789-1.105l-.342-.684c-.681-1.364-2.053-2.211-3.577-2.211h-8.146c-.551 0-1-.449-1-1s.449-1 1-1h22.586c.635 0 1.258.258 1.707.707.833.834 1.942 1.293 3.121 1.293h5.857c2.293 1.271 4.926 2 7.729 2s5.436-.729 7.729-2h6.271c1.103 0 2 .897 2 2s-.897 2-2 2z" data-original="#000000" class="" style="fill:#04458F" data-old_color="#000000"/></g></g></g> </svg>
