<svg id="Layer_1" enable-background="new 0 0 256 256" height="512" viewBox="0 0 256 256" width="512" xmlns="http://www.w3.org/2000/svg"><g><g><path d="m243.15 191.318h-230.3c-4.888 0-8.85-3.962-8.85-8.85v-141.796c0-4.888 3.962-8.85 8.85-8.85h230.3c4.888 0 8.85 3.962 8.85 8.85v141.796c0 4.888-3.962 8.85-8.85 8.85z" fill="#f4efed"/></g><g><path d="m243.15 31.822h-10c4.888 0 8.85 3.962 8.85 8.85v141.796c0 4.888-3.962 8.85-8.85 8.85h10c4.888 0 8.85-3.962 8.85-8.85v-141.796c0-4.888-3.962-8.85-8.85-8.85z" fill="#d6d1cf"/></g><g><path d="m12.85 191.318h10c-4.888 0-8.85-3.962-8.85-8.85v-141.796c0-4.888 3.962-8.85 8.85-8.85h-10c-4.888 0-8.85 3.962-8.85 8.85v141.796c0 4.888 3.962 8.85 8.85 8.85z" fill="#fff"/></g><g><path d="m208.901 224.178h-161.802v-11.854c0-4.888 3.962-8.85 8.85-8.85h144.102c4.888 0 8.85 3.962 8.85 8.85z" fill="#526faa"/></g><g><path d="m200.051 203.474h-10c4.888 0 8.85 3.962 8.85 8.85v11.855h10v-11.855c0-4.888-3.962-8.85-8.85-8.85z" fill="#34518c"/></g><g><path d="m55.949 203.474h10c-4.888 0-8.85 3.962-8.85 8.85v11.855h-10v-11.855c0-4.888 3.962-8.85 8.85-8.85z" fill="#708dc8"/></g><g><path d="m80.503 191.318h94.993v12.156h-94.993z" fill="#34518c"/></g><g><path d="m12 69.026c-1.105 0-2-.896-2-2v-12c0-1.105.895-2 2-2 1.104 0 2 .895 2 2v12c0 1.104-.896 2-2 2z" fill="#690589"/></g><g><path d="m208.901 226.178h-161.802c-1.104 0-2-.896-2-2v-11.855c0-5.983 4.867-10.85 10.851-10.85h144.102c5.983 0 10.851 4.867 10.851 10.85v11.855c-.002 1.105-.897 2-2.002 2zm-159.802-4h157.803v-9.855c0-3.777-3.073-6.85-6.851-6.85h-144.102c-3.777 0-6.851 3.073-6.851 6.85v9.855z" fill="#690589"/></g><g><path d="m175.497 205.474h-94.994c-1.104 0-2-.896-2-2v-12.155c0-1.105.896-2 2-2h94.994c1.104 0 2 .895 2 2v12.155c0 1.104-.895 2-2 2zm-92.994-4h90.994v-8.155h-90.994z" fill="#690589"/></g><g><path d="m243.15 193.318h-230.3c-5.982 0-10.85-4.867-10.85-10.85v-141.796c0-5.983 4.867-10.85 10.85-10.85h230.3c5.982 0 10.85 4.867 10.85 10.85v141.796c0 5.983-4.867 10.85-10.85 10.85zm-230.3-159.496c-3.777 0-6.85 3.073-6.85 6.85v141.796c0 3.777 3.072 6.85 6.85 6.85h230.3c3.777 0 6.85-3.073 6.85-6.85v-141.796c0-3.777-3.072-6.85-6.85-6.85z" fill="#690589"/></g><g><circle cx="128" cy="109.873" fill="#526faa" r="62.902"/></g><g><path d="m128 46.971c-1.345 0-2.676.057-4 .14 32.874 2.065 58.901 29.367 58.901 62.761 0 33.395-26.028 60.697-58.901 62.762 1.324.083 2.655.14 4 .14 34.739 0 62.901-28.162 62.901-62.902.001-34.739-28.161-62.901-62.901-62.901z" fill="#34518c"/></g><g><path d="m128 172.774c1.345 0 2.676-.057 4-.14-32.874-2.065-58.902-29.367-58.902-62.761 0-33.395 26.028-60.697 58.902-62.762-1.324-.083-2.655-.14-4-.14-34.739 0-62.902 28.162-62.902 62.902 0 34.739 28.162 62.901 62.902 62.901z" fill="#708dc8"/></g><g><path d="m128 174.782c-17.586 0-31.361-28.512-31.361-64.91 0-36.397 13.775-64.909 31.361-64.909s31.361 28.512 31.361 64.909c0 36.398-13.775 64.91-31.361 64.91zm0-125.819c-14.831 0-27.361 27.893-27.361 60.909 0 33.017 12.53 60.91 27.361 60.91s27.361-27.893 27.361-60.91c0-33.016-12.53-60.909-27.361-60.909z" fill="#690589"/></g><g><path d="m190.901 111.873h-125.802c-1.105 0-2-.896-2-2s.896-2 2-2h125.803c1.105 0 2 .896 2 2s-.896 2-2.001 2z" fill="#690589"/></g><g><path d="m128 174.774c-1.104 0-2-.895-2-2v-125.803c0-1.104.896-2 2-2 1.105 0 2 .896 2 2v125.803c0 1.105-.895 2-2 2z" fill="#690589"/></g><g><path d="m128 87.252c-20.057 0-38.629-4.298-50.955-11.792-.943-.574-1.244-1.804-.67-2.748.574-.943 1.804-1.245 2.748-.67 11.718 7.124 29.533 11.21 48.877 11.21s37.159-4.086 48.877-11.21c.944-.574 2.175-.273 2.748.67.574.944.273 2.174-.67 2.748-12.326 7.494-30.898 11.792-50.955 11.792z" fill="#690589"/></g><g><path d="m177.928 148.003c-.355 0-.713-.094-1.037-.292-11.719-7.129-29.538-11.218-48.891-11.218-19.352 0-37.171 4.088-48.89 11.217-.942.574-2.174.274-2.748-.669-.574-.944-.274-2.174.67-2.748 12.326-7.5 30.903-11.8 50.968-11.8 20.064 0 38.643 4.301 50.969 11.801.944.574 1.244 1.804.67 2.748-.377.619-1.037.961-1.711.961z" fill="#690589"/></g><g><circle cx="128" cy="109.873" fill="#ff4397" r="40.572"/></g><g><path d="m128 69.3c-1.338 0-2.659.069-3.963.195 20.547 1.993 36.609 19.307 36.609 40.377s-16.062 38.385-36.609 40.377c1.304.127 2.626.195 3.963.195 22.408 0 40.572-18.165 40.572-40.572s-18.164-40.572-40.572-40.572z" fill="#e12579"/></g><g><path d="m128 150.445c1.338 0 2.659-.069 3.963-.195-20.547-1.993-36.609-19.307-36.609-40.377s16.062-38.384 36.609-40.377c-1.304-.127-2.626-.195-3.963-.195-22.408 0-40.572 18.165-40.572 40.572s18.164 40.572 40.572 40.572z" fill="#ff61b5"/></g><g><path d="m128 152.445c-23.475 0-42.572-19.098-42.572-42.573 0-23.474 19.097-42.572 42.572-42.572s42.572 19.098 42.572 42.572c0 23.475-19.097 42.573-42.572 42.573zm0-81.145c-21.269 0-38.572 17.303-38.572 38.572s17.304 38.573 38.572 38.573c21.269 0 38.572-17.304 38.572-38.573 0-21.268-17.303-38.572-38.572-38.572z" fill="#690589"/></g><g><path d="m150.074 95.272-7.473-7.474-14.601 14.601-14.601-14.601-7.473 7.474 14.601 14.601-14.601 14.601 7.473 7.473 14.601-14.601 14.601 14.601 7.473-7.473-14.601-14.601z" fill="#f4efed"/></g><g><path d="m142.601 133.947c-.53 0-1.039-.211-1.414-.586l-13.187-13.186-13.187 13.187c-.375.375-.884.586-1.414.586-.53 0-1.039-.211-1.414-.586l-7.473-7.474c-.781-.781-.781-2.047 0-2.828l13.186-13.187-13.186-13.187c-.781-.781-.781-2.047 0-2.828l7.473-7.474c.75-.75 2.078-.75 2.828 0l13.187 13.187 13.186-13.187c.375-.375.884-.586 1.414-.586.53 0 1.039.211 1.414.586l7.473 7.474c.781.781.781 2.047 0 2.828l-13.186 13.187 13.186 13.187c.781.781.781 2.047 0 2.828l-7.473 7.474c-.374.374-.883.585-1.413.585zm-14.601-18.601c.53 0 1.039.211 1.414.586l13.187 13.187 4.645-4.645-13.186-13.187c-.781-.781-.781-2.047 0-2.828l13.186-13.187-4.645-4.645-13.187 13.187c-.75.75-2.078.75-2.828 0l-13.187-13.187-4.645 4.645 13.186 13.187c.781.781.781 2.047 0 2.828l-13.186 13.187 4.645 4.645 13.187-13.187c.375-.375.884-.586 1.414-.586z" fill="#690589"/></g><g><path d="m128 174.774c-35.787 0-64.901-29.115-64.901-64.902s29.114-64.901 64.901-64.901 64.901 29.115 64.901 64.901c0 35.788-29.114 64.902-64.901 64.902zm0-125.803c-33.581 0-60.901 27.32-60.901 60.901 0 33.582 27.32 60.902 60.901 60.902s60.901-27.32 60.901-60.902c0-33.581-27.32-60.901-60.901-60.901z" fill="#690589"/></g></g></svg>