<svg width="81" height="82" viewBox="0 0 81 82" fill="none" xmlns="http://www.w3.org/2000/svg">
<ellipse cx="40.385" cy="41.2896" rx="40" ry="40.5706" fill="#575CE0"/>
<path d="M59.3677 28.2126H58.5985V23.5973C58.5985 22.9852 58.3554 22.3983 57.9226 21.9655C57.4898 21.5327 56.9028 21.2896 56.2908 21.2896H55.5216V20.5203C55.5216 19.9083 55.2784 19.3213 54.8457 18.8886C54.4129 18.4558 53.8259 18.2126 53.2139 18.2126H23.9831C23.3711 18.2126 22.7841 18.4558 22.3513 18.8886C21.9185 19.3213 21.6754 19.9083 21.6754 20.5203V58.9819C21.6754 59.5939 21.9185 60.1809 22.3513 60.6137C22.7841 61.0464 23.3711 61.2896 23.9831 61.2896H24.7523V62.0588C24.7523 62.6708 24.9955 63.2578 25.4282 63.6906C25.861 64.1234 26.448 64.3665 27.06 64.3665H56.2908C56.9028 64.3665 57.4898 64.1234 57.9226 63.6906C58.3554 63.2578 58.5985 62.6708 58.5985 62.0588V48.2126H59.3677C59.9798 48.2126 60.5667 47.9695 60.9995 47.5367C61.4323 47.104 61.6754 46.517 61.6754 45.905V30.5203C61.6754 29.9083 61.4323 29.3213 60.9995 28.8886C60.5667 28.4558 59.9798 28.2126 59.3677 28.2126ZM56.2908 22.828C56.4948 22.828 56.6905 22.9091 56.8347 23.0533C56.979 23.1976 57.06 23.3932 57.06 23.5973V28.2126H55.5216V22.828H56.2908ZM27.8293 19.7511H29.3677V21.828L29.2385 21.6342C29.1641 21.5347 29.0675 21.4539 28.9564 21.3983C28.8453 21.3426 28.7227 21.3137 28.5985 21.3137C28.4742 21.3137 28.3517 21.3426 28.2406 21.3983C28.1295 21.4539 28.0329 21.5347 27.9585 21.6342L27.8293 21.828V19.7511ZM23.2139 58.9819V20.5203C23.2139 20.3163 23.2949 20.1207 23.4392 19.9764C23.5834 19.8322 23.7791 19.7511 23.9831 19.7511H26.2908V24.3665C26.2908 24.5316 26.3438 24.6923 26.4422 24.8249C26.5406 24.9575 26.679 25.055 26.837 25.1029C26.995 25.1507 27.1642 25.1465 27.3197 25.0908C27.4751 25.035 27.6084 24.9308 27.7 24.7934L28.5985 23.4434L29.497 24.7911C29.5884 24.9283 29.7216 25.0325 29.8768 25.0883C30.032 25.144 30.201 25.1485 30.3589 25.1009C30.5168 25.0533 30.6552 24.9563 30.7537 24.824C30.8523 24.6918 30.9057 24.5314 30.9062 24.3665V19.7511H53.2139C53.4179 19.7511 53.6135 19.8322 53.7578 19.9764C53.9021 20.1207 53.9831 20.3163 53.9831 20.5203V28.2126H30.137C29.5249 28.2126 28.9379 28.4558 28.5052 28.8886C28.0724 29.3213 27.8293 29.9083 27.8293 30.5203V45.905C27.8293 46.517 28.0724 47.104 28.5052 47.5367C28.9379 47.9695 29.5249 48.2126 30.137 48.2126H53.9831V58.9819C53.9831 59.1859 53.9021 59.3815 53.7578 59.5258C53.6135 59.6701 53.4179 59.7511 53.2139 59.7511H23.9831C23.7791 59.7511 23.5834 59.6701 23.4392 59.5258C23.2949 59.3815 23.2139 59.1859 23.2139 58.9819ZM57.06 62.0588C57.06 62.2628 56.979 62.4585 56.8347 62.6027C56.6905 62.747 56.4948 62.828 56.2908 62.828H27.06C26.856 62.828 26.6604 62.747 26.5161 62.6027C26.3718 62.4585 26.2908 62.2628 26.2908 62.0588V61.2896H53.2139C53.8259 61.2896 54.4129 61.0464 54.8457 60.6137C55.2784 60.1809 55.5216 59.5939 55.5216 58.9819V48.2126H57.06V62.0588ZM60.137 45.905C60.137 46.109 60.0559 46.3046 59.9117 46.4489C59.7674 46.5931 59.5717 46.6742 59.3677 46.6742H30.137C29.9329 46.6742 29.7373 46.5931 29.593 46.4489C29.4488 46.3046 29.3677 46.109 29.3677 45.905V30.5203C29.3677 30.3163 29.4488 30.1207 29.593 29.9764C29.7373 29.8322 29.9329 29.7511 30.137 29.7511H59.3677C59.5717 29.7511 59.7674 29.8322 59.9117 29.9764C60.0559 30.1207 60.137 30.3163 60.137 30.5203V45.905Z" fill="white"/>
<path d="M36.2908 33.5972H34.7523V42.0587C34.7523 42.2627 34.8334 42.4584 34.9776 42.6026C35.1219 42.7469 35.3175 42.8279 35.5216 42.8279H39.3677V41.2895H36.2908V33.5972Z" fill="white"/>
<path d="M44.7523 33.5972H43.2138C42.6018 33.5972 42.0148 33.8403 41.582 34.2731C41.1493 34.7059 40.9061 35.2928 40.9061 35.9049V40.5202C40.9061 41.1323 41.1493 41.7193 41.582 42.152C42.0148 42.5848 42.6018 42.8279 43.2138 42.8279H44.7523C45.3643 42.8279 45.9513 42.5848 46.3841 42.152C46.8168 41.7193 47.06 41.1323 47.06 40.5202V35.9049C47.06 35.2928 46.8168 34.7059 46.3841 34.2731C45.9513 33.8403 45.3643 33.5972 44.7523 33.5972ZM45.5215 40.5202C45.5215 40.7243 45.4405 40.9199 45.2962 41.0642C45.152 41.2084 44.9563 41.2895 44.7523 41.2895H43.2138C43.0098 41.2895 42.8142 41.2084 42.6699 41.0642C42.5256 40.9199 42.4446 40.7243 42.4446 40.5202V35.9049C42.4446 35.7008 42.5256 35.5052 42.6699 35.3609C42.8142 35.2167 43.0098 35.1356 43.2138 35.1356H44.7523C44.9563 35.1356 45.152 35.2167 45.2962 35.3609C45.4405 35.5052 45.5215 35.7008 45.5215 35.9049V40.5202Z" fill="white"/>
<path d="M50.9062 35.1356H52.4447C52.6487 35.1356 52.8443 35.2167 52.9886 35.3609C53.1329 35.5052 53.2139 35.7008 53.2139 35.9049H54.7524C54.7524 35.2928 54.5092 34.7059 54.0764 34.2731C53.6437 33.8403 53.0567 33.5972 52.4447 33.5972H50.9062C50.2942 33.5972 49.7072 33.8403 49.2744 34.2731C48.8416 34.7059 48.5985 35.2928 48.5985 35.9049V40.5202C48.5985 41.1323 48.8416 41.7193 49.2744 42.152C49.7072 42.5848 50.2942 42.8279 50.9062 42.8279H52.4447C53.0567 42.8279 53.6437 42.5848 54.0764 42.152C54.5092 41.7193 54.7524 41.1323 54.7524 40.5202V38.2126C54.7524 38.0085 54.6713 37.8129 54.5271 37.6686C54.3828 37.5244 54.1871 37.4433 53.9831 37.4433H51.6754V38.9818H53.2139V40.5202C53.2139 40.7243 53.1329 40.9199 52.9886 41.0642C52.8443 41.2084 52.6487 41.2895 52.4447 41.2895H50.9062C50.7022 41.2895 50.5065 41.2084 50.3623 41.0642C50.218 40.9199 50.137 40.7243 50.137 40.5202V35.9049C50.137 35.7008 50.218 35.5052 50.3623 35.3609C50.5065 35.2167 50.7022 35.1356 50.9062 35.1356Z" fill="white"/>
</svg>
