<svg width="81" height="82" viewBox="0 0 81 82" fill="none" xmlns="http://www.w3.org/2000/svg">
<ellipse cx="40.642" cy="41.4065" rx="40" ry="40.5706" fill="#575CE0"/>
<path d="M61.1322 36.7733L61.1323 36.7732L56.0246 33.387V22.0687C56.0246 21.7029 55.728 21.4062 55.3621 21.4062H27.4944C27.1286 21.4062 26.8319 21.7029 26.8319 22.0687V33.3878L21.7252 36.7732L21.7252 36.7734C21.5466 36.892 21.4287 37.0948 21.4287 37.3253V57.8412C21.4287 58.2071 21.7253 58.5037 22.0912 58.5037H60.7662C61.1321 58.5037 61.4287 58.2071 61.4287 57.8412V37.3253C61.4287 37.0948 61.3108 36.892 61.1322 36.7733ZM26.8319 39.0901L24.7539 37.9878H26.8319V39.0901ZM22.7537 38.4267L37.9886 46.5081L22.7537 56.6068V38.4267ZM41.4284 45.8174L58.568 57.1787H24.289L41.4284 45.8174ZM44.8685 46.5082L60.1037 38.4267V56.6071L44.8685 46.5082ZM56.0246 37.9878H58.1036L56.0246 39.0906V37.9878ZM58.568 36.6629H56.0246V34.9766L58.568 36.6629ZM54.6996 22.7312V39.7934L43.6116 45.675L41.7944 44.4705C41.5726 44.3234 41.2842 44.3234 41.0624 44.4705L39.2454 45.6749L28.1569 39.793V22.7312H54.6996ZM26.8319 36.6629H24.2896L26.8319 34.9775V36.6629Z" fill="white"/>
<path d="M41.4283 38.8288H46.7065C47.0723 38.8288 47.369 38.5322 47.369 38.1663C47.369 37.8004 47.0723 37.5038 46.7065 37.5038H41.4283C38.8832 37.5038 36.8126 35.4333 36.8126 32.8882V32.6927C36.8126 30.1476 38.8832 28.077 41.4283 28.077C43.9734 28.077 46.044 30.1476 46.044 32.6927V33.1814C46.044 33.7323 45.5958 34.1806 45.0448 34.1806C44.4938 34.1806 44.0456 33.7324 44.0456 33.1814V32.2529C44.0456 30.6749 42.7619 29.3911 41.1839 29.3911C39.6059 29.3911 38.3222 30.6748 38.3222 32.2529C38.3222 33.8308 39.6059 35.1146 41.1839 35.1146C41.9055 35.1146 42.5651 34.8456 43.0689 34.4033C43.4791 35.0643 44.2112 35.5055 45.0448 35.5055C46.3263 35.5055 47.369 34.4629 47.369 33.1813V32.6926C47.369 29.4169 44.704 26.752 41.4283 26.752C38.1526 26.752 35.4877 29.4169 35.4877 32.6926V32.8881C35.4877 36.1638 38.1526 38.8288 41.4283 38.8288ZM41.1839 33.7896C40.3365 33.7896 39.6472 33.1002 39.6472 32.2529C39.6472 31.4055 40.3366 30.7161 41.1839 30.7161C42.0312 30.7161 42.7206 31.4055 42.7206 32.2529C42.7206 33.1002 42.0313 33.7896 41.1839 33.7896Z" fill="white"/>
</svg>
