<svg width="81" height="79" viewBox="0 0 81 79" fill="none" xmlns="http://www.w3.org/2000/svg">
<ellipse cx="40.8745" cy="39.3009" rx="40" ry="38.7682" fill="#FF7040"/>
<path d="M52.1095 30.5457C51.8128 30.5457 51.5162 30.4455 51.2778 30.2388C48.3978 27.7495 44.7028 26.3781 40.8745 26.3781C37.0462 26.3781 33.3512 27.7495 30.4712 30.2388C29.9562 30.6814 29.1645 30.6394 28.7062 30.1402C28.2462 29.6411 28.2912 28.8738 28.8078 28.4296C32.1462 25.5446 36.4312 23.9551 40.8745 23.9551C45.3178 23.9551 49.6028 25.5446 52.9412 28.4296C53.4578 28.8754 53.5028 29.6411 53.0428 30.1402C52.7962 30.4084 52.4528 30.5457 52.1095 30.5457Z" fill="white"/>
<path d="M53.7929 36.7019C53.3946 36.7019 53.0029 36.5178 52.7613 36.1753C50.0512 32.3502 45.6079 30.0661 40.8746 30.0661C36.1412 30.0661 31.6979 32.3502 28.9879 36.1769C28.5979 36.7277 27.8229 36.8731 27.2495 36.4903C26.6812 36.1123 26.5362 35.3579 26.9279 34.8071C30.1029 30.3197 35.3162 27.6431 40.8746 27.6431C46.4329 27.6431 51.6462 30.3213 54.8213 34.8055C55.2113 35.3563 55.0663 36.1107 54.4996 36.4887C54.2829 36.6341 54.0346 36.7019 53.7929 36.7019Z" fill="white"/>
<path d="M37.7363 54.646C37.4196 54.646 37.1013 54.5297 36.858 54.2971C36.638 54.0871 31.4663 49.0795 31.4663 44.2173C31.4663 39.1436 35.6863 35.0164 40.8763 35.0164C46.0663 35.0164 50.2863 39.1436 50.2863 44.2173C50.2863 44.8861 49.7263 45.4288 49.0363 45.4288C48.3463 45.4288 47.7863 44.8861 47.7863 44.2173C47.7863 40.4811 44.688 37.4394 40.8763 37.4394C37.0646 37.4394 33.9663 40.4794 33.9663 44.2173C33.9663 48.0651 38.5713 52.5299 38.6163 52.5735C39.1063 53.0452 39.1113 53.8109 38.6263 54.2874C38.3813 54.5264 38.0596 54.646 37.7363 54.646Z" fill="white"/>
<path d="M44.0129 54.6467C41.5496 54.6467 35.8429 50.2223 35.2912 45.2939C35.0946 43.517 35.6596 41.7611 36.8412 40.4786C37.8879 39.3414 39.3096 38.7114 40.8462 38.7033C42.3513 38.6952 43.7696 39.2606 44.8396 40.2928C45.9229 41.3363 46.5196 42.7303 46.5196 44.2165V44.8303C46.5196 46.1953 47.6496 47.3066 49.0363 47.3066C50.4229 47.3066 51.5529 46.1953 51.5529 44.8303V44.6155C51.5529 38.8907 47.1763 34.127 41.5896 33.7749C38.6046 33.5778 35.7912 34.568 33.6246 36.5355C31.4496 38.5111 30.2012 41.3105 30.2012 44.2148C30.2012 46.6427 31.0696 49.0076 32.6429 50.8749C33.0796 51.3934 32.9996 52.1559 32.4662 52.5791C31.9312 53.0023 31.1462 52.9264 30.7062 52.4079C28.7696 50.1092 27.7012 47.1984 27.7012 44.2148C27.7012 40.6417 29.2379 37.1978 31.9146 34.7667C34.5946 32.334 38.1029 31.1273 41.7513 31.3551C48.6496 31.7929 54.0513 37.6162 54.0513 44.6138V44.8287C54.0513 47.5295 51.7996 49.728 49.0346 49.728C46.2696 49.728 44.0179 47.5311 44.0179 44.8287V44.2148C44.0179 43.3781 43.6829 42.5947 43.0763 42.0083C42.4863 41.4381 41.7046 41.1247 40.8763 41.1247C40.8696 41.1247 40.8646 41.1247 40.8596 41.1247C39.8096 41.1295 39.1096 41.6529 38.7062 42.0907C38.0046 42.8531 37.6579 43.9515 37.7779 45.0322C38.1912 48.741 42.7963 52.2237 44.0129 52.2237C44.7029 52.2237 45.2629 52.7665 45.2629 53.4352C45.2629 54.104 44.7029 54.6467 44.0129 54.6467Z" fill="white"/>
<path d="M47.7013 52.8036C44.0079 52.8036 39.5463 48.699 39.5463 43.6026C39.5463 42.9339 40.1063 42.3911 40.7963 42.3911C41.4863 42.3911 42.0463 42.9339 42.0463 43.6026C42.0463 47.3438 45.4679 50.3806 47.7013 50.3806C48.3913 50.3806 48.9513 50.9233 48.9513 51.5921C48.9513 52.2609 48.3913 52.8036 47.7013 52.8036Z" fill="white"/>
<path d="M59.6245 33.4014C58.9345 33.4014 58.3745 32.8586 58.3745 32.1899V24.3587C58.3745 23.2457 57.4395 22.3395 56.2912 22.3395H48.2112C47.5212 22.3395 46.9612 21.7968 46.9612 21.128C46.9612 20.4593 47.5212 19.9165 48.2112 19.9165H56.2912C58.8195 19.9165 60.8745 21.9098 60.8745 24.3587V32.1899C60.8745 32.8586 60.3145 33.4014 59.6245 33.4014Z" fill="white"/>
<path d="M22.1245 33.4014C21.4345 33.4014 20.8745 32.8586 20.8745 32.1899V24.3587C20.8745 21.9098 22.9295 19.9165 25.4579 19.9165H33.5379C34.2279 19.9165 34.7879 20.4593 34.7879 21.128C34.7879 21.7968 34.2279 22.3395 33.5379 22.3395H25.4579C24.3095 22.3395 23.3745 23.2457 23.3745 24.3587V32.1899C23.3745 32.8586 22.8145 33.4014 22.1245 33.4014Z" fill="white"/>
<path d="M56.2912 58.6848H48.2112C47.5212 58.6848 46.9612 58.1421 46.9612 57.4733C46.9612 56.8046 47.5212 56.2618 48.2112 56.2618H56.2912C57.4395 56.2618 58.3745 55.3556 58.3745 54.2426V46.4115C58.3745 45.7427 58.9345 45.2 59.6245 45.2C60.3145 45.2 60.8745 45.7427 60.8745 46.4115V54.2426C60.8745 56.6915 58.8195 58.6848 56.2912 58.6848Z" fill="white"/>
<path d="M33.5379 58.6848H25.4579C22.9295 58.6848 20.8745 56.6915 20.8745 54.2426V46.4115C20.8745 45.7427 21.4345 45.2 22.1245 45.2C22.8145 45.2 23.3745 45.7427 23.3745 46.4115V54.2426C23.3745 55.3556 24.3095 56.2618 25.4579 56.2618H33.5379C34.2279 56.2618 34.7879 56.8046 34.7879 57.4733C34.7879 58.1421 34.2279 58.6848 33.5379 58.6848Z" fill="white"/>
</svg>
