<svg width="81" height="83" viewBox="0 0 81 83" fill="none" xmlns="http://www.w3.org/2000/svg">
<ellipse cx="40.642" cy="41.5235" rx="40" ry="40.5706" fill="#575CE0"/>
<path d="M40.6409 51.6833C40.2058 51.6833 39.853 52.0361 39.853 52.4712V55.4962C39.853 55.9314 40.2058 56.2841 40.6409 56.2841C41.0761 56.2841 41.4288 55.9314 41.4288 55.4962V52.4712C41.4288 52.0361 41.0761 51.6833 40.6409 51.6833Z" fill="white"/>
<path d="M27.2167 27.4609C25.7435 27.4609 24.5449 28.6582 24.5449 30.1298C24.5449 31.6014 25.7435 32.7986 27.2167 32.7986C28.6887 32.7986 29.8863 31.6013 29.8863 30.1298C29.8863 28.6582 28.6887 27.4609 27.2167 27.4609ZM27.2167 31.2229C26.6123 31.2229 26.1207 30.7325 26.1207 30.1298C26.1207 29.527 26.6123 29.0367 27.2167 29.0367C27.8198 29.0367 28.3105 29.527 28.3105 30.1298C28.3105 30.7325 27.8198 31.2229 27.2167 31.2229Z" fill="white"/>
<path d="M56.9031 24.031H24.3786C22.3182 24.031 20.642 25.9648 20.642 28.3419V51.4577C20.642 53.8359 22.3182 55.7708 24.3786 55.7708H30.3272V58.7492C30.3272 59.7779 31.1633 60.6148 32.191 60.6148H46.5075C47.1675 61.5152 47.907 62.2134 48.7174 62.6982L48.7186 62.6989C49.0732 62.9102 49.3585 63.0158 49.6433 63.0158C49.9285 63.0158 50.2132 62.91 50.5668 62.6982C51.756 61.9869 52.7948 60.815 53.6549 59.2145C54.2628 58.0808 54.6474 56.908 54.7902 55.7708H56.9033C58.9647 55.7708 60.642 53.8359 60.642 51.4577V28.3419C60.642 25.9648 58.9647 24.031 56.9031 24.031ZM32.191 59.039C32.0349 59.039 31.9029 58.9062 31.9029 58.7491V49.2957C31.9029 49.1386 32.0348 49.0059 32.191 49.0059H49.0908C49.2481 49.0059 49.381 49.1386 49.381 49.2957V51.0098C49.3426 51.0233 49.3047 51.0388 49.2682 51.0584L45.4788 53.1007L45.4664 53.1073C44.8481 53.4398 44.442 53.7312 44.431 54.7152C44.4195 56.119 44.8034 57.6102 45.5402 59.039H32.191ZM40.6409 42.0462C38.5207 42.0462 36.7958 43.7716 36.7958 45.8923V47.4302H34.0304V46.3305C34.0304 42.7151 36.973 39.7737 40.59 39.7737C44.2082 39.7737 47.1518 42.7151 47.1518 46.3305V47.4301H44.4882V45.8923C44.4881 43.7715 42.7623 42.0462 40.6409 42.0462ZM42.9124 45.8923V47.4302H38.3715V45.8923C38.3715 44.6405 39.3895 43.622 40.6408 43.622C41.8934 43.6219 42.9124 44.6405 42.9124 45.8923ZM52.2664 58.4692C51.5535 59.7959 50.686 60.7907 49.7574 61.3462C49.7079 61.3758 49.6706 61.3972 49.6424 61.4125C49.614 61.3971 49.5762 61.3757 49.5262 61.3458C48.597 60.7899 47.7304 59.7955 47.0197 58.4689C46.3472 57.2187 45.997 55.9252 46.0067 54.7305C46.0074 54.6762 46.0092 54.6357 46.0114 54.6061C46.067 54.5735 46.1453 54.5313 46.2128 54.4951L49.642 52.647L53.0588 54.4884L53.0741 54.4966C53.1407 54.5324 53.218 54.574 53.2731 54.6063C53.2752 54.6358 53.2768 54.6758 53.2772 54.7295C53.2891 55.9209 52.9394 57.2144 52.2664 58.4692ZM59.0662 34.5932H34.6836C34.2485 34.5932 33.8957 34.9459 33.8957 35.3811C33.8957 35.8162 34.2485 36.169 34.6836 36.169H59.0662V51.4577C59.0662 52.9415 58.0756 54.195 56.9031 54.195H54.7992C54.6699 53.6137 54.3128 53.3737 53.8203 53.1088L50.9567 51.5655V49.2957C50.9567 48.267 50.1196 47.4301 49.0907 47.4301H48.7274V46.3305C48.7274 41.8462 45.0769 38.198 40.5899 38.198C36.104 38.198 32.4545 41.8462 32.4545 46.3305V47.4301H32.1908C31.1631 47.4301 30.327 48.267 30.327 49.2957V54.195H24.3786C23.2073 54.195 22.2177 52.9415 22.2177 51.4577V36.169H27.6682C28.1034 36.169 28.4561 35.8162 28.4561 35.3811C28.4561 34.9459 28.1034 34.5932 27.6682 34.5932H22.2177V28.3419C22.2177 26.8593 23.2073 25.6068 24.3786 25.6068H56.9031C58.0756 25.6068 59.0662 26.8593 59.0662 28.3419V34.5932Z" fill="white"/>
<path d="M34.1612 27.4609C32.6892 27.4609 31.4916 28.6582 31.4916 30.1298C31.4916 31.6014 32.6892 32.7986 34.1612 32.7986C35.6344 32.7986 36.833 31.6013 36.833 30.1298C36.833 28.6582 35.6345 27.4609 34.1612 27.4609ZM34.1612 31.2229C33.5581 31.2229 33.0674 30.7325 33.0674 30.1298C33.0674 29.527 33.5581 29.0367 34.1612 29.0367C34.7656 29.0367 35.2572 29.527 35.2572 30.1298C35.2572 30.7325 34.7656 31.2229 34.1612 31.2229Z" fill="white"/>
<path d="M54.0673 27.4609H45.1282C43.6561 27.4609 42.4586 28.6582 42.4586 30.1298C42.4586 31.6014 43.6562 32.7986 45.1282 32.7986H54.0673C55.5393 32.7986 56.7369 31.6013 56.7369 30.1298C56.7369 28.6582 55.5393 27.4609 54.0673 27.4609ZM54.0673 31.2229H45.1282C44.525 31.2229 44.0343 30.7325 44.0343 30.1298C44.0343 29.527 44.525 29.0367 45.1282 29.0367H54.0673C54.6704 29.0367 55.1611 29.527 55.1611 30.1298C55.1612 30.7325 54.6705 31.2229 54.0673 31.2229Z" fill="white"/>
<path d="M31.1771 34.5933H31.1727C30.7375 34.5933 30.387 34.946 30.387 35.3812C30.387 35.8163 30.7419 36.169 31.177 36.169C31.6122 36.169 31.9649 35.8163 31.9649 35.3812C31.965 34.946 31.6123 34.5933 31.1771 34.5933Z" fill="white"/>
</svg>
