<svg width="81" height="83" viewBox="0 0 81 83" fill="none" xmlns="http://www.w3.org/2000/svg">
<ellipse cx="40.8745" cy="41.4549" rx="40" ry="40.5706" fill="#FF7040"/>
<path d="M57.1612 57.0205C57.467 56.5088 57.5939 55.9075 57.5213 55.3137C57.4488 54.7199 57.181 54.1682 56.7612 53.7478C58.7554 51.1014 60.0761 47.9975 60.6065 44.7105C61.1369 41.4234 60.8607 38.0544 59.8023 34.9013C58.7439 31.7482 56.9358 28.9082 54.538 26.6323C52.1402 24.3565 49.2265 22.7148 46.0545 21.8525C43.0997 21.0547 40.004 20.9544 37.005 21.5593C34.006 22.1641 31.1836 23.458 28.7545 25.3416C28.34 24.9158 27.7961 24.6442 27.2106 24.5706C26.6252 24.497 26.0323 24.6257 25.5278 24.9359L24.0145 23.3942C23.8874 23.2696 23.7179 23.1994 23.5412 23.1981H20.8745V24.5505H23.2678L24.5878 25.8893C24.282 26.401 24.1551 27.0023 24.2277 27.5961C24.3003 28.1899 24.5681 28.7416 24.9878 29.162C22.0449 33.0624 20.5989 37.9141 20.9188 42.8149C21.2386 47.7156 23.3025 52.3317 26.7266 55.8046C30.1506 59.2776 34.7018 61.3709 39.5337 61.6953C44.3655 62.0197 49.149 60.553 52.9945 57.5682C53.409 57.9939 53.9529 58.2655 54.5384 58.3392C55.1239 58.4128 55.7167 58.2841 56.2212 57.9739L57.7345 59.5155C57.8616 59.6401 58.0311 59.7103 58.2078 59.7116H60.8745V58.3593H58.4812L57.1612 57.0205ZM46.3478 23.3604C49.047 24.1982 51.5229 25.648 53.5878 27.6L42.1678 39.1897L46.3478 23.3604ZM33.1612 50.2316L34.7678 48.6021C35.9458 49.6416 37.3625 50.3639 38.8878 50.7027C40.413 51.0414 41.9978 50.9857 43.4962 50.5406C44.9946 50.0955 46.3587 49.2753 47.4628 48.1555C48.5668 47.0357 49.3756 45.6523 49.8145 44.1325C50.4691 44.0674 51.0765 43.7581 51.5189 43.2644C51.9614 42.7708 52.2073 42.1281 52.2089 41.461C52.2106 40.7939 51.9679 40.1499 51.5279 39.654C51.088 39.1581 50.4821 38.8457 49.8278 38.7772C49.4491 37.4811 48.8012 36.2822 47.9278 35.2611L50.7478 32.4009C52.9427 34.8523 54.1727 38.0365 54.2039 41.3477C54.2351 44.659 53.0653 47.8664 50.9171 50.36C48.7689 52.8536 45.7921 54.4594 42.5527 54.8721C39.3133 55.2848 36.0373 54.4755 33.3478 52.5983C33.4733 52.2798 33.5389 51.9404 33.5412 51.5975C33.5371 51.116 33.4058 50.6443 33.1612 50.2316ZM30.8745 48.8928C30.5364 48.8952 30.2018 48.9617 29.8878 49.0889C28.3561 46.8466 27.5372 44.1828 27.5412 41.4549C27.5447 37.8693 28.9506 34.4316 31.4503 31.8962C33.95 29.3609 37.3394 27.9349 40.8745 27.9313C41.8162 27.9327 42.7549 28.037 43.6745 28.2424L42.6412 32.1642C42.0594 32.0472 41.4677 31.9883 40.8745 31.9884C39.0851 31.9864 37.3328 32.5068 35.827 33.4874C34.3212 34.468 33.1255 35.8674 32.3825 37.5185C31.6395 39.1697 31.3807 41.0028 31.637 42.7991C31.8933 44.5953 32.6539 46.2789 33.8278 47.6487L32.2212 49.2782C31.8143 49.0301 31.3493 48.897 30.8745 48.8928ZM32.2078 51.5975C32.2078 51.865 32.1296 52.1265 31.9831 52.3489C31.8366 52.5712 31.6284 52.7446 31.3848 52.8469C31.1411 52.9493 30.873 52.9761 30.6144 52.9239C30.3558 52.8717 30.1182 52.7429 29.9317 52.5538C29.7452 52.3647 29.6182 52.1237 29.5668 51.8614C29.5154 51.599 29.5418 51.3271 29.6427 51.08C29.7436 50.8329 29.9145 50.6217 30.1338 50.4731C30.353 50.3245 30.6108 50.2452 30.8745 50.2452C31.2278 50.2462 31.5663 50.3891 31.8162 50.6424C32.066 50.8958 32.2068 51.2392 32.2078 51.5975ZM40.7212 39.4399C40.2935 39.472 39.8873 39.6423 39.5621 39.9258C39.2369 40.2094 39.0098 40.5912 38.9143 41.0152C38.8188 41.4392 38.8598 41.8831 39.0313 42.2818C39.2029 42.6804 39.4959 43.0128 39.8673 43.2301C40.2388 43.4474 40.6692 43.5383 41.0953 43.4892C41.5214 43.4402 41.9208 43.2539 42.2348 42.9578C42.5489 42.6616 42.761 42.2711 42.8402 41.8436C42.9193 41.4161 42.8612 40.9742 42.6745 40.5826L46.9678 36.228C47.6414 37.0375 48.1531 37.9723 48.4745 38.9801C47.9996 39.1903 47.5953 39.5363 47.3112 39.9758C47.027 40.4153 46.8753 40.9293 46.8745 41.4549C46.8764 41.712 46.9169 41.9674 46.9945 42.2122L46.0212 42.8072H42.8745V44.1596H46.2078C46.3295 44.1586 46.4488 44.126 46.5545 44.0649L47.6745 43.382C47.9104 43.6151 48.1859 43.803 48.4878 43.9364C48.0872 45.2058 47.384 46.3554 46.4407 47.2832C45.4973 48.2111 44.3428 48.8886 43.0795 49.2557C41.8163 49.6229 40.4832 49.6683 39.1985 49.3879C37.9138 49.1076 36.7172 48.5102 35.7145 47.6487L36.4812 46.8643H38.8745V45.5119H36.2078C36.0311 45.5133 35.8616 45.5835 35.7345 45.708L34.7678 46.6885C33.7822 45.5079 33.15 44.0659 32.9461 42.5327C32.7422 40.9996 32.975 39.4393 33.617 38.0359C34.2591 36.6326 35.2835 35.4449 36.5695 34.6129C37.8554 33.781 39.3492 33.3396 40.8745 33.3408C41.3514 33.3454 41.8268 33.3952 42.2945 33.4895L40.7212 39.4399ZM41.5412 41.4549C41.5412 41.5886 41.5021 41.7193 41.4288 41.8305C41.3556 41.9417 41.2515 42.0284 41.1296 42.0796C41.0078 42.1308 40.8738 42.1441 40.7445 42.1181C40.6151 42.092 40.4963 42.0276 40.4031 41.933C40.3099 41.8384 40.2464 41.718 40.2207 41.5868C40.1949 41.4556 40.2081 41.3197 40.2586 41.1961C40.3091 41.0726 40.3945 40.967 40.5041 40.8927C40.6138 40.8184 40.7427 40.7787 40.8745 40.7787C41.0513 40.7787 41.2209 40.8499 41.3459 40.9767C41.4709 41.1036 41.5412 41.2755 41.5412 41.4549ZM49.5412 40.1025C49.8049 40.1025 50.0627 40.1818 50.2819 40.3304C50.5012 40.479 50.6721 40.6902 50.773 40.9374C50.8739 41.1845 50.9003 41.4564 50.8489 41.7187C50.7974 41.981 50.6705 42.222 50.484 42.4111C50.2975 42.6003 50.0599 42.7291 49.8013 42.7812C49.5427 42.8334 49.2746 42.8066 49.0309 42.7043C48.7873 42.6019 48.5791 42.4286 48.4326 42.2062C48.286 41.9838 48.2078 41.7223 48.2078 41.4549C48.2089 41.0965 48.3497 40.7532 48.5995 40.4998C48.8494 40.2464 49.1879 40.1036 49.5412 40.1025ZM26.8745 25.9028C27.1382 25.9028 27.396 25.9821 27.6153 26.1307C27.8345 26.2793 28.0054 26.4905 28.1064 26.7376C28.2073 26.9848 28.2337 27.2567 28.1822 27.519C28.1308 27.7813 28.0038 28.0223 27.8173 28.2114C27.6309 28.4006 27.3933 28.5294 27.1346 28.5815C26.876 28.6337 26.6079 28.6069 26.3643 28.5046C26.1206 28.4022 25.9124 28.2289 25.7659 28.0065C25.6194 27.7841 25.5412 27.5226 25.5412 27.2552C25.5422 26.8968 25.683 26.5535 25.9329 26.3001C26.1827 26.0467 26.5212 25.9039 26.8745 25.9028ZM54.8745 57.0069C54.6108 57.0069 54.353 56.9276 54.1338 56.779C53.9145 56.6304 53.7436 56.4192 53.6427 56.1721C53.5418 55.925 53.5154 55.6531 53.5668 55.3908C53.6182 55.1284 53.7452 54.8875 53.9317 54.6983C54.1182 54.5092 54.3558 54.3804 54.6144 54.3282C54.873 54.276 55.1411 54.3028 55.3848 54.4052C55.6284 54.5075 55.8366 54.6809 55.9831 54.9033C56.1297 55.1256 56.2078 55.3871 56.2078 55.6546C56.2068 56.0129 56.066 56.3563 55.8162 56.6097C55.5663 56.863 55.2278 57.0059 54.8745 57.0069ZM55.6012 53.0648C55.3655 52.9921 55.1208 52.9534 54.8745 52.9499C54.1673 52.9499 53.489 53.2348 52.9889 53.7421C52.4888 54.2493 52.2078 54.9372 52.2078 55.6546C52.2114 55.9044 52.2495 56.1525 52.3212 56.3916C48.7334 59.227 44.2477 60.6349 39.708 60.3502C35.1684 60.0656 30.8878 58.1081 27.6716 54.8461C24.4555 51.5841 22.5255 47.2424 22.2449 42.638C21.9643 38.0336 23.3523 33.4839 26.1478 29.8449C26.3836 29.9176 26.6282 29.9563 26.8745 29.9599C27.5818 29.9599 28.26 29.6749 28.7601 29.1677C29.2602 28.6605 29.5412 27.9725 29.5412 27.2552C29.5377 27.0053 29.4995 26.7572 29.4278 26.5181C31.6106 24.7876 34.1475 23.5742 36.8525 22.967C39.5576 22.3598 42.3623 22.374 45.0612 23.0088L44.0212 26.9374C42.9888 26.6992 41.9333 26.579 40.8745 26.579C36.9861 26.5836 33.2582 28.1524 30.5087 30.9412C27.7591 33.7299 26.2124 37.511 26.2078 41.4549C26.2024 44.4734 27.115 47.4203 28.8212 49.8936C28.4264 50.3712 28.2093 50.9742 28.2078 51.5975C28.2078 52.3149 28.4888 53.0028 28.9889 53.51C29.489 54.0173 30.1673 54.3022 30.8745 54.3022C31.489 54.3007 32.0836 54.0806 32.5545 53.6801C34.993 55.4107 37.8984 56.3363 40.8745 56.3308C43.7189 56.3357 46.5031 55.5003 48.8869 53.9264C51.2708 52.3526 53.151 50.1086 54.2979 47.4686C55.4449 44.8286 55.8088 41.907 55.3453 39.0606C54.8818 36.2142 53.6109 33.5664 51.6878 31.4407L54.5345 28.5534C57.5587 31.8421 59.3275 36.1169 59.523 40.6097C59.7185 45.1024 58.328 49.5187 55.6012 53.0648Z" fill="white"/>
<path d="M35.5411 43.4834H38.8745V44.8358H35.5411V43.4834Z" fill="white"/>
<path d="M42.8745 44.8358H46.2078V46.1882H42.8745V44.8358Z" fill="white"/>
<path d="M58.2079 60.3878H60.8746V61.7402H58.2079V60.3878Z" fill="white"/>
<path d="M20.8745 21.1698H23.5412V22.5222H20.8745V21.1698Z" fill="white"/>
<path d="M20.8745 60.3878H26.2078V61.7402H20.8745V60.3878Z" fill="white"/>
<path d="M20.8745 56.3307H26.2078V57.683H20.8745V56.3307Z" fill="white"/>
<path d="M20.8745 58.3593H22.2078V59.7116H20.8745V58.3593Z" fill="white"/>
<path d="M23.5412 58.3593H26.2079V59.7116H23.5412V58.3593Z" fill="white"/>
<path d="M60.2079 21.1696H54.8746C54.6977 21.1696 54.5282 21.2408 54.4031 21.3676C54.2781 21.4944 54.2079 21.6664 54.2079 21.8457V24.5504C54.2079 24.7298 54.2781 24.9018 54.4031 25.0286C54.5282 25.1554 54.6977 25.2266 54.8746 25.2266H60.2079C60.3847 25.2266 60.5543 25.1554 60.6793 25.0286C60.8043 24.9018 60.8746 24.7298 60.8746 24.5504V21.8457C60.8746 21.6664 60.8043 21.4944 60.6793 21.3676C60.5543 21.2408 60.3847 21.1696 60.2079 21.1696ZM59.5412 23.8743H55.5412V22.5219H59.5412V23.8743Z" fill="white"/>
</svg>
