<svg width="81" height="82" viewBox="0 0 81 82" fill="none" xmlns="http://www.w3.org/2000/svg">
<ellipse cx="40.8745" cy="41.3377" rx="40" ry="40.5706" fill="#FF7040"/>
<path d="M57.1804 40.4451C56.9491 40.4451 56.7221 40.5405 56.5584 40.7065C56.3948 40.8726 56.3007 41.1018 56.3007 41.3374C56.3007 41.5721 56.3948 41.8023 56.5584 41.9682C56.7221 42.1342 56.9491 42.2297 57.1804 42.2297C57.4127 42.2297 57.6388 42.1343 57.8024 41.9682C57.9661 41.8023 58.0602 41.5721 58.0602 41.3374C58.0602 41.1017 57.9661 40.8725 57.8024 40.7065C57.6388 40.5405 57.4119 40.4451 57.1804 40.4451Z" fill="white"/>
<path d="M58.0604 47.2466V45.3525C58.0604 44.8598 57.6665 44.4602 57.1807 44.4602C56.6948 44.4602 56.3009 44.8598 56.3009 45.3525V47.246C54.6865 47.6471 53.4847 49.1264 53.4847 50.8857C53.4847 51.2493 53.537 51.6006 53.6327 51.9332L43.5406 57.843C42.8676 57.1308 41.9216 56.6861 40.8745 56.6861C39.8276 56.6861 38.8818 57.1307 38.2088 57.8427L28.1164 51.9328C28.212 51.6002 28.2642 51.2492 28.2642 50.8858C28.2642 49.1268 27.063 47.6477 25.4491 47.2464V35.4289C27.063 35.0275 28.2642 33.5485 28.2642 31.7895C28.2642 31.4261 28.212 31.075 28.1164 30.7424L38.2087 24.8324C38.8817 25.5445 39.8276 25.9891 40.8745 25.9891C41.9216 25.9891 42.8676 25.5443 43.5406 24.8321L53.6327 30.7419C53.537 31.0746 53.4847 31.4258 53.4847 31.7894C53.4847 33.5489 54.6865 35.0281 56.3009 35.4291V37.3219C56.3009 37.8146 56.6948 38.2142 57.1807 38.2142C57.6665 38.2142 58.0604 37.8146 58.0604 37.3219V35.4286C59.6738 35.0269 60.8745 33.5481 60.8745 31.7894C60.8745 29.723 59.217 28.0418 57.1796 28.0418C56.1331 28.0418 55.1875 28.4861 54.5146 29.1976L44.4218 23.2875C44.5172 22.9553 44.5694 22.6046 44.5694 22.2415C44.5694 20.1751 42.9119 18.4939 40.8745 18.4939C38.8371 18.4939 37.1796 20.1751 37.1796 22.2415C37.1796 22.6048 37.2318 22.9557 37.3273 23.2881L27.2348 29.1982C26.5619 28.4864 25.6161 28.0419 24.5694 28.0419C22.532 28.0419 20.8745 29.7231 20.8745 31.7895C20.8745 33.5485 22.0758 35.0276 23.6897 35.4289V47.2463C22.0758 47.6477 20.8745 49.1267 20.8745 50.8857C20.8745 52.9521 22.532 54.6333 24.5694 54.6333C25.6161 54.6333 26.5619 54.1888 27.2348 53.4771L37.3273 59.3871C37.2318 59.7195 37.1796 60.0704 37.1796 60.4336C37.1796 62.5001 38.8371 64.1812 40.8745 64.1812C42.9119 64.1812 44.5694 62.5001 44.5694 60.4336C44.5694 60.0705 44.5172 59.7198 44.4219 59.3876L54.5146 53.4774C55.1875 54.1889 56.1331 54.6333 57.1796 54.6333C59.217 54.6333 60.8745 52.9521 60.8745 50.8857C60.8745 49.1272 59.6738 47.6484 58.0604 47.2466ZM57.1796 29.8265C58.2468 29.8265 59.115 30.7071 59.115 31.7895C59.115 32.872 58.2468 33.7526 57.1796 33.7526C56.1124 33.7526 55.2442 32.872 55.2442 31.7895C55.2442 30.7071 56.1124 29.8265 57.1796 29.8265ZM40.8745 20.2785C41.9417 20.2785 42.8099 21.1591 42.8099 22.2415C42.8099 23.3239 41.9417 24.2045 40.8745 24.2045C39.8073 24.2045 38.9391 23.3239 38.9391 22.2415C38.9391 21.1591 39.8073 20.2785 40.8745 20.2785ZM22.6339 31.7895C22.6339 30.7071 23.5021 29.8265 24.5693 29.8265C25.6365 29.8265 26.5048 30.7071 26.5048 31.7895C26.5048 32.8708 25.6384 33.7506 24.5728 33.7525C24.5716 33.7525 24.5706 33.7523 24.5693 33.7523C24.5681 33.7523 24.567 33.7525 24.5659 33.7525C23.5004 33.7506 22.6339 32.8708 22.6339 31.7895ZM24.5693 52.8488C23.5021 52.8488 22.6339 51.9682 22.6339 50.8858C22.6339 49.8033 23.5021 48.9227 24.5693 48.9227C25.6365 48.9227 26.5048 49.8033 26.5048 50.8858C26.5048 51.9682 25.6365 52.8488 24.5693 52.8488ZM40.8745 62.3967C39.8073 62.3967 38.9391 61.5161 38.9391 60.4337C38.9391 60.0767 39.034 59.7419 39.1989 59.4532C39.199 59.4531 39.199 59.453 39.199 59.4529C39.1991 59.4527 39.1992 59.4526 39.1993 59.4525C39.5345 58.8662 40.1596 58.4708 40.8745 58.4708C41.9417 58.4708 42.8099 59.3514 42.8099 60.4338C42.8099 61.5162 41.9417 62.3967 40.8745 62.3967ZM57.1796 52.8488C56.1124 52.8488 55.2442 51.9682 55.2442 50.8858C55.2442 49.8033 56.1124 48.9227 57.1796 48.9227C58.2468 48.9227 59.115 49.8033 59.115 50.8858C59.115 51.9682 58.2468 52.8488 57.1796 52.8488Z" fill="white"/>
<path d="M40.8745 30.095C37.8669 30.095 35.4201 32.5767 35.4201 35.6272V36.5234C33.7571 36.6049 32.429 38.0026 32.429 39.7091V44.0147C32.429 48.738 36.2176 52.5807 40.8745 52.5807C45.5314 52.5807 49.32 48.738 49.32 44.0147V39.7091C49.32 38.0026 47.9918 36.605 46.3288 36.5234V35.6272C46.3288 32.5767 43.882 30.095 40.8745 30.095ZM37.1795 35.6272C37.1795 33.5607 38.8371 31.8795 40.8745 31.8795C42.9118 31.8795 44.5694 33.5607 44.5694 35.6272V36.5195H37.1795V35.6272ZM47.5605 39.7091V44.0147C47.5605 47.7539 44.5612 50.7961 40.8745 50.7961C37.1877 50.7961 34.1884 47.7539 34.1884 44.0147V39.7091C34.1884 38.9343 34.8099 38.304 35.5738 38.304H46.1752C46.939 38.304 47.5605 38.9343 47.5605 39.7091Z" fill="white"/>
<path d="M40.8745 40.4451C39.3222 40.4451 38.0593 41.7259 38.0593 43.3004C38.0593 44.5634 38.8724 45.6368 39.9953 46.0123V47.7618C39.9953 48.2546 40.3891 48.6541 40.875 48.6541C41.3609 48.6541 41.7548 48.2546 41.7548 47.7618V46.012C42.8771 45.6361 43.6896 44.563 43.6896 43.3004C43.6896 41.7259 42.4268 40.4451 40.8745 40.4451ZM40.8745 44.3711C40.2924 44.3711 39.8188 43.8908 39.8188 43.3004C39.8188 42.71 40.2924 42.2296 40.8745 42.2296C41.4566 42.2296 41.9302 42.71 41.9302 43.3004C41.9302 43.8908 41.4565 44.3711 40.8745 44.3711Z" fill="white"/>
</svg>
