<svg width="81" height="83" viewBox="0 0 81 83" fill="none" xmlns="http://www.w3.org/2000/svg">
<ellipse cx="40.385" cy="41.5235" rx="40" ry="40.5706" fill="#575CE0"/>
<path d="M37.6114 49.2669H23.6531C23.3287 49.2669 23.0645 49.0025 23.0645 48.6781V25.9685C23.0645 25.6442 23.3287 25.3799 23.6531 25.3799H57.1156C57.4401 25.3799 57.7042 25.6442 57.7042 25.9685V30.9422C58.6843 31.0579 59.6026 31.3791 60.3836 31.9071V25.9685C60.3836 24.1664 58.9171 22.7004 57.1155 22.7004H23.6531C21.8515 22.7004 20.385 24.1663 20.385 25.9685V48.678C20.385 50.4802 21.8515 51.9463 23.6531 51.9463H34.8692V56.3271H33.1004C31.991 56.3271 31.0908 57.2266 31.0908 58.3367C31.0908 59.4468 31.991 60.3463 33.1004 60.3463H38.7418C38.0367 59.3547 37.6115 58.1509 37.6115 56.844V49.2669H37.6114Z" fill="white"/>
<path d="M48.8576 58.3198V55.4252H42.9703V36.9369C42.9703 36.5469 43.2869 36.2297 43.6767 36.2297H56.9979C57.3878 36.2297 57.7043 36.5469 57.7043 36.9369V42.6588H58.7079C59.3215 42.6588 59.8893 42.836 60.3837 43.1251V36.9369C60.3837 35.0692 58.8648 33.5503 56.9979 33.5503H43.6767C41.8098 33.5503 40.2909 35.0692 40.2909 36.9369V56.844C40.2909 58.7117 41.8098 60.2306 43.6767 60.2306H49.462C49.0931 59.7008 48.8576 58.9625 48.8576 58.3198Z" fill="white"/>
<path d="M58.7079 44.3335H52.2096C51.2844 44.3335 50.5322 45.0864 50.5322 46.0113V58.3198C50.5322 59.2447 51.2844 59.9971 52.2096 59.9971H58.7079C59.6329 59.9971 60.3851 59.2447 60.3851 58.3198V46.0112C60.3851 45.0863 59.6328 44.3335 58.7079 44.3335ZM52.5417 46.343H58.3755V56.9828H52.5417V46.343ZM55.4594 59.182C55.2749 59.182 55.1101 59.1073 54.9845 58.9923C54.8418 58.8627 54.7502 58.6808 54.7502 58.4734C54.7502 58.0823 55.0669 57.7656 55.4594 57.7656C55.8492 57.7656 56.1658 58.0823 56.1658 58.4734C56.1658 58.6808 56.0742 58.8626 55.933 58.9923C55.8072 59.1074 55.6424 59.182 55.4594 59.182Z" fill="white"/>
</svg>
