<svg width="81" height="82" viewBox="0 0 81 82" fill="none" xmlns="http://www.w3.org/2000/svg">
<ellipse cx="40.385" cy="41.4065" rx="40" ry="40.5706" fill="#575CE0"/>
<path d="M59.7398 21.4065H21.0302C20.8591 21.4065 20.695 21.4745 20.574 21.5955C20.453 21.7164 20.385 21.8805 20.385 22.0517V45.2775C20.385 45.4486 20.453 45.6127 20.574 45.7337C20.695 45.8547 20.8591 45.9226 21.0302 45.9226H34.9084C35.269 46.9443 35.9091 47.8443 36.756 48.5202C36.8165 48.5688 36.8854 48.606 36.9592 48.6299L36.6221 49.9379L31.2423 51.7307C30.4132 51.7602 29.6272 52.1075 29.0473 52.7007C28.4673 53.2939 28.1378 54.0875 28.1269 54.917L27.5495 60.1162H24.256C24.0849 60.1162 23.9208 60.1841 23.7998 60.3051C23.6788 60.4261 23.6108 60.5902 23.6108 60.7613C23.6108 60.9324 23.6788 61.0965 23.7998 61.2175C23.9208 61.3385 24.0849 61.4065 24.256 61.4065H56.514C56.6852 61.4065 56.8492 61.3385 56.9702 61.2175C57.0912 61.0965 57.1592 60.9324 57.1592 60.7613C57.1592 60.5902 57.0912 60.4261 56.9702 60.3051C56.8492 60.1841 56.6852 60.1162 56.514 60.1162H53.2205L52.6431 54.917C52.6322 54.0875 52.3027 53.2939 51.7227 52.7007C51.1428 52.1075 50.3568 51.7602 49.5278 51.7307L44.1479 49.9379L43.8108 48.6299C43.8847 48.606 43.9535 48.5688 44.014 48.5202C44.8609 47.8443 45.501 46.9443 45.8616 45.9226H59.7398C59.911 45.9226 60.0751 45.8547 60.196 45.7337C60.317 45.6127 60.385 45.4486 60.385 45.2775V22.0517C60.385 21.8805 60.317 21.7164 60.196 21.5955C60.0751 21.4745 59.911 21.4065 59.7398 21.4065ZM49.2132 52.9863C49.2791 53.0081 49.3479 53.0193 49.4173 53.0194C49.9304 53.0201 50.4223 53.2242 50.7851 53.587C51.1479 53.9499 51.3521 54.4418 51.3528 54.9549C51.3529 54.9786 51.3542 55.0023 51.3568 55.0258L51.9221 60.1162H48.1269V56.8904C48.1269 56.7193 48.059 56.5552 47.938 56.4342C47.817 56.3132 47.6529 56.2452 47.4818 56.2452C47.3107 56.2452 47.1466 56.3132 47.0256 56.4342C46.9046 56.5552 46.8366 56.7193 46.8366 56.8904V60.1162H33.9334V56.8904C33.9334 56.7193 33.8654 56.5552 33.7444 56.4342C33.6234 56.3132 33.4593 56.2452 33.2882 56.2452C33.1171 56.2452 32.953 56.3132 32.832 56.4342C32.711 56.5552 32.6431 56.7193 32.6431 56.8904V60.1162H28.8479L29.4132 55.0258C29.4158 55.0023 29.4171 54.9786 29.4173 54.9549C29.418 54.4418 29.6221 53.9499 29.9849 53.587C30.3477 53.2242 30.8396 53.0201 31.3528 53.0194C31.4221 53.0193 31.491 53.0081 31.5568 52.9863L37.264 51.0839H43.506L49.2132 52.9863ZM44.9011 43.9871C44.9022 44.6365 44.7627 45.2784 44.492 45.8686C44.2214 46.4589 43.8261 46.9836 43.3334 47.4065C43.2252 47.3314 43.0967 47.2911 42.965 47.2912C42.8333 47.2913 42.7048 47.3316 42.5967 47.4069C42.4886 47.4821 42.4062 47.5886 42.3604 47.7121C42.3146 47.8356 42.3077 47.9701 42.3407 48.0976L42.7786 49.7936H37.9915L38.4294 48.0976C38.4623 47.9701 38.4554 47.8356 38.4096 47.7121C38.3638 47.5886 38.2814 47.4821 38.1733 47.4069C38.0652 47.3316 37.9367 47.2913 37.805 47.2912C37.6733 47.2911 37.5448 47.3314 37.4366 47.4065C36.9439 46.9836 36.5486 46.4589 36.278 45.8686C36.0074 45.2784 35.8678 44.6365 35.8689 43.9871V41.4065C35.8689 40.2087 36.3447 39.06 37.1916 38.2131C38.0386 37.3662 39.1873 36.8904 40.385 36.8904C41.5828 36.8904 42.7315 37.3662 43.5784 38.2131C44.4253 39.06 44.9011 40.2087 44.9011 41.4065V43.9871ZM59.0947 44.6323H46.156C46.1796 44.4181 46.1914 44.2027 46.1915 43.9871V41.4065C46.1915 39.8665 45.5797 38.3896 44.4908 37.3007C43.4019 36.2118 41.925 35.6 40.385 35.6C38.845 35.6 37.3681 36.2118 36.2792 37.3007C35.1903 38.3896 34.5786 39.8665 34.5786 41.4065V43.9871C34.5786 44.2027 34.5905 44.4181 34.614 44.6323H21.6753V22.6968H59.0947V44.6323Z" fill="white"/>
<path d="M27.4818 25.2776H41.0302C41.2013 25.2776 41.3654 25.2097 41.4864 25.0887C41.6074 24.9677 41.6754 24.8036 41.6754 24.6325C41.6754 24.4614 41.6074 24.2973 41.4864 24.1763C41.3654 24.0553 41.2013 23.9873 41.0302 23.9873H27.4818C27.3107 23.9873 27.1466 24.0553 27.0256 24.1763C26.9046 24.2973 26.8367 24.4614 26.8367 24.6325C26.8367 24.8036 26.9046 24.9677 27.0256 25.0887C27.1466 25.2097 27.3107 25.2776 27.4818 25.2776Z" fill="white"/>
<path d="M27.4818 27.2132H39.0947C39.2658 27.2132 39.4299 27.1452 39.5509 27.0242C39.6719 26.9032 39.7399 26.7391 39.7399 26.568C39.7399 26.3969 39.6719 26.2328 39.5509 26.1118C39.4299 25.9908 39.2658 25.9229 39.0947 25.9229H27.4818C27.3107 25.9229 27.1466 25.9908 27.0256 26.1118C26.9046 26.2328 26.8367 26.3969 26.8367 26.568C26.8367 26.7391 26.9046 26.9032 27.0256 27.0242C27.1466 27.1452 27.3107 27.2132 27.4818 27.2132Z" fill="white"/>
<path d="M27.4818 29.1487H33.9334C34.1046 29.1487 34.2687 29.0807 34.3896 28.9598C34.5106 28.8388 34.5786 28.6747 34.5786 28.5036C34.5786 28.3325 34.5106 28.1684 34.3896 28.0474C34.2687 27.9264 34.1046 27.8584 33.9334 27.8584H27.4818C27.3107 27.8584 27.1466 27.9264 27.0256 28.0474C26.9046 28.1684 26.8367 28.3325 26.8367 28.5036C26.8367 28.6747 26.9046 28.8388 27.0256 28.9598C27.1466 29.0807 27.3107 29.1487 27.4818 29.1487Z" fill="white"/>
<path d="M23.6109 29.1486H25.5463C25.7175 29.1486 25.8815 29.0806 26.0025 28.9596C26.1235 28.8386 26.1915 28.6745 26.1915 28.5034V24.6325C26.1915 24.4614 26.1235 24.2973 26.0025 24.1763C25.8815 24.0553 25.7175 23.9873 25.5463 23.9873H23.6109C23.4398 23.9873 23.2757 24.0553 23.1547 24.1763C23.0337 24.2973 22.9657 24.4614 22.9657 24.6325V28.5034C22.9657 28.6745 23.0337 28.8386 23.1547 28.9596C23.2757 29.0806 23.4398 29.1486 23.6109 29.1486ZM24.256 25.2776H24.9012V27.8583H24.256V25.2776Z" fill="white"/>
<path d="M51.9979 23.9873C50.8495 23.9873 49.7268 24.3278 48.772 24.9659C47.8171 25.6039 47.0729 26.5107 46.6334 27.5717C46.1939 28.6327 46.0789 29.8002 46.303 30.9265C46.527 32.0529 47.08 33.0875 47.8921 33.8995C48.7041 34.7116 49.7387 35.2646 50.8651 35.4886C51.9914 35.7127 53.1589 35.5977 54.2199 35.1582C55.2809 34.7187 56.1877 33.9745 56.8257 33.0196C57.4638 32.0648 57.8043 30.9422 57.8043 29.7938C57.8025 28.2543 57.1902 26.7785 56.1017 25.6899C55.0131 24.6014 53.5373 23.9891 51.9979 23.9873ZM52.643 25.3244C53.6072 25.4651 54.5003 25.9133 55.1893 26.6023C55.8783 27.2913 56.3265 28.1844 56.4672 29.1486H52.643V25.3244ZM47.4817 29.7938C47.4833 28.7083 47.8752 27.6595 48.5858 26.839C49.2965 26.0185 50.2785 25.4809 51.3527 25.3244V29.5268L48.3825 32.497C47.7969 31.7175 47.4807 30.7687 47.4817 29.7938ZM51.9979 34.3099C51.0229 34.3109 50.0741 33.9947 49.2946 33.4091L52.2648 30.4389H56.4672C56.3107 31.5131 55.7731 32.4951 54.9526 33.2058C54.1321 33.9165 53.0834 34.3083 51.9979 34.3099Z" fill="white"/>
<path d="M56.514 36.8901H50.0624C49.8913 36.8901 49.7272 36.9581 49.6062 37.0791C49.4852 37.2001 49.4172 37.3642 49.4172 37.5353C49.4172 37.7064 49.4852 37.8705 49.6062 37.9915C49.7272 38.1125 49.8913 38.1805 50.0624 38.1805H56.514C56.6851 38.1805 56.8492 38.1125 56.9702 37.9915C57.0912 37.8705 57.1592 37.7064 57.1592 37.5353C57.1592 37.3642 57.0912 37.2001 56.9702 37.0791C56.8492 36.9581 56.6851 36.8901 56.514 36.8901Z" fill="white"/>
<path d="M56.514 38.8257H50.0624C49.9777 38.8257 49.8938 38.8424 49.8155 38.8748C49.7372 38.9072 49.6661 38.9547 49.6062 39.0146L47.3481 41.2727C47.2272 41.3937 47.1592 41.5578 47.1592 41.7289C47.1592 41.9 47.2272 42.0641 47.3481 42.1851C47.4691 42.3061 47.6332 42.3741 47.8044 42.3741C47.9755 42.3741 48.1396 42.3061 48.2606 42.1851L50.3297 40.116H56.514C56.6851 40.116 56.8492 40.048 56.9702 39.927C57.0912 39.8061 57.1592 39.642 57.1592 39.4708C57.1592 39.2997 57.0912 39.1356 56.9702 39.0146C56.8492 38.8937 56.6851 38.8257 56.514 38.8257Z" fill="white"/>
<path d="M33.9333 37.5355V31.729C33.9333 31.5579 33.8654 31.3938 33.7444 31.2728C33.6234 31.1519 33.4593 31.0839 33.2882 31.0839H31.3527C31.1816 31.0839 31.0175 31.1519 30.8965 31.2728C30.7755 31.3938 30.7075 31.5579 30.7075 31.729V37.5355H30.0624V33.6645C30.0624 33.4934 29.9944 33.3293 29.8734 33.2083C29.7524 33.0873 29.5883 33.0194 29.4172 33.0194H27.4817C27.3106 33.0194 27.1465 33.0873 27.0255 33.2083C26.9045 33.3293 26.8366 33.4934 26.8366 33.6645V37.5355H26.1914V31.0839C26.1914 30.9128 26.1234 30.7487 26.0024 30.6277C25.8814 30.5067 25.7173 30.4387 25.5462 30.4387H23.6108C23.4396 30.4387 23.2756 30.5067 23.1546 30.6277C23.0336 30.7487 22.9656 30.9128 22.9656 31.0839V37.5355C22.7945 37.5355 22.6304 37.6035 22.5094 37.7245C22.3884 37.8454 22.3204 38.0095 22.3204 38.1807C22.3204 38.3518 22.3884 38.5159 22.5094 38.6369C22.6304 38.7578 22.7945 38.8258 22.9656 38.8258H33.9333C34.1044 38.8258 34.2685 38.7578 34.3895 38.6369C34.5105 38.5159 34.5785 38.3518 34.5785 38.1807C34.5785 38.0095 34.5105 37.8454 34.3895 37.7245C34.2685 37.6035 34.1044 37.5355 33.9333 37.5355ZM24.9011 37.5355H24.2559V31.729H24.9011V37.5355ZM28.772 37.5355H28.1269V34.3097H28.772V37.5355ZM32.643 37.5355H31.9979V32.3742H32.643V37.5355Z" fill="white"/>
<path d="M22.9656 40.7615H29.7952L32.5094 43.4758C32.6304 43.5968 32.7945 43.6648 32.9656 43.6648C33.1367 43.6648 33.3008 43.5968 33.4218 43.4758C33.5428 43.3548 33.6108 43.1907 33.6108 43.0196C33.6108 42.8485 33.5428 42.6844 33.4218 42.5634L30.5186 39.6601C30.4587 39.6002 30.3875 39.5527 30.3093 39.5203C30.231 39.4879 30.1471 39.4712 30.0624 39.4712H22.9656C22.7945 39.4712 22.6304 39.5392 22.5094 39.6602C22.3884 39.7811 22.3204 39.9452 22.3204 40.1164C22.3204 40.2875 22.3884 40.4516 22.5094 40.5726C22.6304 40.6935 22.7945 40.7615 22.9656 40.7615Z" fill="white"/>
<path d="M22.9656 42.6968H25.5462C25.7173 42.6968 25.8814 42.6288 26.0024 42.5079C26.1234 42.3869 26.1914 42.2228 26.1914 42.0517C26.1914 41.8805 26.1234 41.7164 26.0024 41.5955C25.8814 41.4745 25.7173 41.4065 25.5462 41.4065H22.9656C22.7945 41.4065 22.6304 41.4745 22.5094 41.5955C22.3884 41.7164 22.3204 41.8805 22.3204 42.0517C22.3204 42.2228 22.3884 42.3869 22.5094 42.5079C22.6304 42.6288 22.7945 42.6968 22.9656 42.6968Z" fill="white"/>
</svg>
