<svg width="81" height="82" viewBox="0 0 81 82" fill="none" xmlns="http://www.w3.org/2000/svg">
<ellipse cx="40.8745" cy="41.2205" rx="40" ry="40.5706" fill="#FF7040"/>
<path d="M51.0308 39.1605C51.8937 39.1605 52.5933 38.451 52.5933 37.5758C52.5933 36.7005 51.8937 35.991 51.0308 35.991C50.1678 35.991 49.4683 36.7005 49.4683 37.5758C49.4683 38.451 50.1678 39.1605 51.0308 39.1605Z" fill="white"/>
<path d="M54.6245 24.1049H52.5933V22.5201C52.5933 21.6448 51.8937 20.9353 51.0308 20.9353C50.1678 20.9353 49.4683 21.6448 49.4683 22.5201V24.1049H42.3589V22.5201C42.3589 21.6448 41.6594 20.9353 40.7964 20.9353C39.9334 20.9353 39.2339 21.6448 39.2339 22.5201V24.1049H32.2026V22.5201C32.2026 21.6448 31.5031 20.9353 30.6401 20.9353C29.7772 20.9353 29.0776 21.6448 29.0776 22.5201V24.1049H27.1245C23.6783 24.1049 20.8745 26.9486 20.8745 30.444V55.1667C20.8745 58.6621 23.6783 61.5059 27.1245 61.5059H39.0776C39.9406 61.5059 40.6401 60.7964 40.6401 59.9211C40.6401 59.0458 39.9406 58.3363 39.0776 58.3363H27.1245C25.4014 58.3363 23.9995 56.9144 23.9995 55.1667V30.444C23.9995 28.6963 25.4014 27.2745 27.1245 27.2745H29.0776V28.8592C29.0776 29.7345 29.7772 30.444 30.6401 30.444C31.5031 30.444 32.2026 29.7345 32.2026 28.8592V27.2745H39.2339V28.8592C39.2339 29.7345 39.9334 30.444 40.7964 30.444C41.6594 30.444 42.3589 29.7345 42.3589 28.8592V27.2745H49.4683V28.8592C49.4683 29.7345 50.1678 30.444 51.0308 30.444C51.8937 30.444 52.5933 29.7345 52.5933 28.8592V27.2745H54.6245C56.3476 27.2745 57.7495 28.6963 57.7495 30.444V39.4773C57.7495 40.3526 58.449 41.0621 59.312 41.0621C60.175 41.0621 60.8745 40.3526 60.8745 39.4773V30.444C60.8745 26.9486 58.0708 24.1049 54.6245 24.1049Z" fill="white"/>
<path d="M51.4214 42.3303C46.2089 42.3303 41.9683 46.6314 41.9683 51.9183C41.9683 57.2051 46.2089 61.5063 51.4214 61.5063C56.6339 61.5063 60.8745 57.2051 60.8745 51.9183C60.8745 46.6314 56.6339 42.3303 51.4214 42.3303ZM51.4214 58.3367C47.9321 58.3367 45.0933 55.4574 45.0933 51.9183C45.0933 48.3791 47.9321 45.4999 51.4214 45.4999C54.9107 45.4999 57.7495 48.3791 57.7495 51.9183C57.7495 55.4574 54.9107 58.3367 51.4214 58.3367Z" fill="white"/>
<path d="M53.687 50.3333H52.9839V48.6693C52.9839 47.794 52.2844 47.0845 51.4214 47.0845C50.5584 47.0845 49.8589 47.794 49.8589 48.6693V51.9181C49.8589 52.7934 50.5584 53.5029 51.4214 53.5029H53.687C54.55 53.5029 55.2495 52.7934 55.2495 51.9181C55.2495 51.0428 54.55 50.3333 53.687 50.3333Z" fill="white"/>
<path d="M44.2339 39.1605C45.0968 39.1605 45.7964 38.451 45.7964 37.5758C45.7964 36.7005 45.0968 35.991 44.2339 35.991C43.3709 35.991 42.6714 36.7005 42.6714 37.5758C42.6714 38.451 43.3709 39.1605 44.2339 39.1605Z" fill="white"/>
<path d="M37.437 46.0541C38.3 46.0541 38.9995 45.3446 38.9995 44.4693C38.9995 43.5941 38.3 42.8845 37.437 42.8845C36.5741 42.8845 35.8745 43.5941 35.8745 44.4693C35.8745 45.3446 36.5741 46.0541 37.437 46.0541Z" fill="white"/>
<path d="M30.6402 39.1605C31.5031 39.1605 32.2027 38.451 32.2027 37.5758C32.2027 36.7005 31.5031 35.991 30.6402 35.991C29.7773 35.991 29.0777 36.7005 29.0777 37.5758C29.0777 38.451 29.7773 39.1605 30.6402 39.1605Z" fill="white"/>
<path d="M30.6402 46.0541C31.5031 46.0541 32.2027 45.3446 32.2027 44.4693C32.2027 43.5941 31.5031 42.8845 30.6402 42.8845C29.7773 42.8845 29.0777 43.5941 29.0777 44.4693C29.0777 45.3446 29.7773 46.0541 30.6402 46.0541Z" fill="white"/>
<path d="M30.6402 52.9481C31.5031 52.9481 32.2027 52.2386 32.2027 51.3634C32.2027 50.4881 31.5031 49.7786 30.6402 49.7786C29.7773 49.7786 29.0777 50.4881 29.0777 51.3634C29.0777 52.2386 29.7773 52.9481 30.6402 52.9481Z" fill="white"/>
<path d="M37.437 52.9481C38.3 52.9481 38.9995 52.2386 38.9995 51.3634C38.9995 50.4881 38.3 49.7786 37.437 49.7786C36.5741 49.7786 35.8745 50.4881 35.8745 51.3634C35.8745 52.2386 36.5741 52.9481 37.437 52.9481Z" fill="white"/>
<path d="M37.437 39.1605C38.3 39.1605 38.9995 38.451 38.9995 37.5758C38.9995 36.7005 38.3 35.991 37.437 35.991C36.5741 35.991 35.8745 36.7005 35.8745 37.5758C35.8745 38.451 36.5741 39.1605 37.437 39.1605Z" fill="white"/>
</svg>
