<?xml version="1.0"?>
<svg xmlns="http://www.w3.org/2000/svg" id="Layer_1" enable-background="new 0 0 256 256" height="512px" viewBox="0 0 256 256" width="512px" class=""><g><g><g><path d="m109.343 144.696v-35.012h37.314v35.012h26.096c13.051.017 23.617 10.733 23.6 23.784v39.831h-136.875v-40.026c.017-13.051 10.672-23.617 23.723-23.6z" fill="#526faa" data-original="#526FAA"/></g><g><g><path d="m172.753 144.696h-8.29c13.051.017 23.617 10.723 23.6 23.774v39.842h8.289v-39.832c.018-13.051-10.548-23.768-23.599-23.784z" fill="#34518c" data-original="#34518C"/></g></g><g><g><path d="m83.201 144.685 8.289.01c-13.051-.017-23.706 10.549-23.723 23.6v40.015h-8.289v-40.026c.017-13.05 10.672-23.616 23.723-23.599z" fill="#708dc8" data-original="#708DC8"/></g></g><g><path d="m128 173.442c-10.304 0-18.657-8.353-18.657-18.657v-45.101h37.314v45.101c0 10.304-8.353 18.657-18.657 18.657z" fill="#ff9f70" data-original="#FF9F70"/></g><g><path d="m128 175.441c-11.391 0-20.657-9.267-20.657-20.656v-45.102c0-1.104.896-2 2-2h37.314c1.105 0 2 .896 2 2v45.102c0 11.39-9.266 20.656-20.657 20.656zm-16.657-63.757v43.102c0 9.184 7.473 16.656 16.657 16.656s16.657-7.472 16.657-16.656v-43.102z" fill="#690589" data-original="#690589" class="active-path" style="fill:#194C80" data-old_color="#690589"/></g><g><path d="m196.354 210.311h-136.877c-1.104 0-2-.895-2-2v-40.026c.019-14.124 11.541-25.6 25.691-25.6h.035l24.139.009v-33.011c0-1.104.896-2 2-2h37.314c1.105 0 2 .896 2 2v33.012h24.096c6.845.009 13.279 2.707 18.122 7.597 4.831 4.879 7.487 11.339 7.479 18.19v39.829c.001 1.105-.895 2-1.999 2zm-134.877-4h132.876v-37.831c.008-5.791-2.237-11.249-6.32-15.373-4.088-4.127-9.515-6.403-15.283-6.411h-26.093c-1.104 0-2-.895-2-2v-33.012h-33.314v33.012c0 .53-.211 1.039-.586 1.414s-.884.586-1.414.586h-.001l-26.142-.01c-.01 0-.02 0-.029 0-5.774 0-11.209 2.243-15.31 6.317-4.108 4.084-6.376 9.513-6.384 15.285v38.023z" fill="#690589" data-original="#690589" class="active-path" style="fill:#194C80" data-old_color="#690589"/></g><g><path d="m90.965 77.744h-2.641c-6.826 0-12.36 5.534-12.36 12.36s5.534 12.36 12.36 12.36h2.641z" fill="#ffbd8e" data-original="#FFBD8E"/></g><g><path d="m167.577 77.744h-2.641v24.72h2.641c6.826 0 12.36-5.534 12.36-12.36-.001-6.827-5.534-12.36-12.36-12.36z" fill="#e18152" data-original="#E18152"/></g><g><path d="m127.95 140.575c-20.427 0-36.986-16.774-36.986-37.466v-25.938c0-20.692 16.559-37.466 36.986-37.466 20.427 0 36.986 16.774 36.986 37.466v25.938c0 20.692-16.559 37.466-36.986 37.466z" fill="#ff9f70" data-original="#FF9F70"/></g><g><path d="m127.95 39.705c-1.422 0-2.823.089-4.203.248 18.446 2.115 32.783 17.967 32.783 37.218v25.938c0 19.252-14.336 35.103-32.783 37.218 1.38.158 2.781.248 4.203.248 20.427 0 36.986-16.774 36.986-37.466v-25.938c0-20.692-16.559-37.466-36.986-37.466z" fill="#e18152" data-original="#E18152"/></g><g><path d="m127.95 39.705c1.422 0 2.823.089 4.203.248-18.446 2.115-32.783 17.967-32.783 37.218v25.938c0 19.252 14.336 35.103 32.783 37.218-1.38.158-2.781.248-4.203.248-20.427 0-36.986-16.774-36.986-37.466v-25.938c.001-20.692 16.559-37.466 36.986-37.466z" fill="#ffbd8e" data-original="#FFBD8E"/></g><g><path d="m127.95 142.575c-21.497 0-38.985-17.704-38.985-39.466v-25.938c0-21.762 17.488-39.466 38.985-39.466s38.985 17.704 38.985 39.466v25.938c.001 21.762-17.488 39.466-38.985 39.466zm0-100.87c-19.291 0-34.985 15.91-34.985 35.466v25.938c0 19.556 15.694 35.466 34.985 35.466s34.985-15.91 34.985-35.466v-25.938c.001-19.556-15.694-35.466-34.985-35.466z" fill="#690589" data-original="#690589" class="active-path" style="fill:#194C80" data-old_color="#690589"/></g><g><path d="m90.965 104.464h-2.641c-7.918 0-14.36-6.442-14.36-14.36s6.442-14.36 14.36-14.36h2.641c1.104 0 2 .896 2 2v24.721c0 1.103-.896 1.999-2 1.999zm-2.641-24.721c-5.713 0-10.36 4.647-10.36 10.36s4.647 10.36 10.36 10.36h.641v-20.72z" fill="#690589" data-original="#690589" class="active-path" style="fill:#194C80" data-old_color="#690589"/></g><g><path d="m167.576 104.464h-2.641c-1.104 0-2-.896-2-2v-24.721c0-1.104.896-2 2-2h2.641c7.918 0 14.36 6.442 14.36 14.36s-6.442 14.361-14.36 14.361zm-.64-4h.641c5.713 0 10.36-4.647 10.36-10.36s-4.647-10.36-10.36-10.36h-.641z" fill="#690589" data-original="#690589" class="active-path" style="fill:#194C80" data-old_color="#690589"/></g><g><path d="m164.467 62.615h-73.034l10.967-58.615 25.55 5.483 25.55-5.483z" fill="#690589" data-original="#690589" class="active-path" style="fill:#194C80" data-old_color="#690589"/></g><g><path d="m91.433 62.615h73.034l-3.234-17.284h-66.566z" fill="#f4efed" data-original="#F4EFED"/></g><g><path d="m155.191 45.331 3.233 17.284h6.043l-3.234-17.284z" fill="#d6d1cf" data-original="#D6D1CF"/></g><g><path d="m100.71 45.331-3.234 17.284h-6.043l3.234-17.284z" fill="#fff" data-original="#FFF"/></g><g><path d="m187.643 77.744h-119.385c-4.178 0-7.564-3.387-7.564-7.564 0-4.178 3.387-7.564 7.564-7.564h119.385c4.178 0 7.564 3.387 7.564 7.564 0 4.177-3.387 7.564-7.564 7.564z" fill="#690589" data-original="#690589" class="active-path" style="fill:#194C80" data-old_color="#690589"/></g><g><path d="m164.468 64.615h-73.035c-.595 0-1.159-.265-1.539-.723-.38-.457-.536-1.061-.427-1.646l10.968-58.615c.1-.53.408-.998.857-1.297.448-.299.997-.405 1.528-.29l25.13 5.393 25.13-5.393c.531-.114 1.079-.008 1.528.29.449.299.758.767.857 1.297l10.968 58.615c.109.585-.047 1.188-.427 1.646-.379.459-.944.723-1.538.723zm-70.626-4h68.217l-10.147-54.228-23.542 5.052c-.277.06-.562.06-.84 0l-23.542-5.052z" fill="#690589" data-original="#690589" class="active-path" style="fill:#194C80" data-old_color="#690589"/></g><g><path d="m187.643 79.743h-119.385c-5.273 0-9.564-4.29-9.564-9.563s4.291-9.565 9.564-9.565h119.385c5.273 0 9.564 4.291 9.564 9.565s-4.291 9.563-9.564 9.563zm-119.385-15.128c-3.068 0-5.564 2.496-5.564 5.565 0 3.067 2.496 5.563 5.564 5.563h119.385c3.068 0 5.564-2.496 5.564-5.563 0-3.068-2.496-5.565-5.564-5.565z" fill="#690589" data-original="#690589" class="active-path" style="fill:#194C80" data-old_color="#690589"/></g><g><path d="m164.468 64.615h-73.035c-.595 0-1.159-.265-1.539-.723-.38-.457-.536-1.061-.427-1.646l3.234-17.284c.177-.946 1.003-1.632 1.966-1.632h66.566c.963 0 1.789.686 1.966 1.632l3.234 17.284c.109.585-.047 1.188-.427 1.646-.379.459-.944.723-1.538.723zm-70.626-4h68.217l-2.485-13.284h-63.247z" fill="#690589" data-original="#690589" class="active-path" style="fill:#194C80" data-old_color="#690589"/></g><g><path d="m199.785 252h-143.57c-2.757 0-4.991-2.235-4.991-4.991v-83.02c0-2.757 2.235-4.992 4.991-4.992h143.57c2.757 0 4.992 2.235 4.992 4.992v83.02c0 2.756-2.235 4.991-4.992 4.991z" fill="#f4efed" data-original="#F4EFED"/></g><g><path d="m199.785 158.997h-7.986c2.757 0 4.992 2.234 4.992 4.992v83.02c0 2.757-2.235 4.992-4.992 4.992h7.986c2.757 0 4.992-2.235 4.992-4.992v-83.02c0-2.757-2.235-4.992-4.992-4.992z" fill="#d6d1cf" data-original="#D6D1CF"/></g><g><path d="m56.215 252h7.986c-2.757 0-4.992-2.234-4.992-4.992v-83.02c0-2.757 2.235-4.992 4.992-4.992h-7.986c-2.757 0-4.991 2.235-4.991 4.992v83.02c-.001 2.758 2.234 4.992 4.991 4.992z" fill="#fff" data-original="#FFF"/></g><g><path d="m199.785 254h-143.57c-3.854 0-6.991-3.137-6.991-6.991v-83.02c0-3.855 3.137-6.992 6.991-6.992h143.57c3.854 0 6.991 3.137 6.991 6.992v83.02c0 3.854-3.136 6.991-6.991 6.991zm-143.57-93.003c-1.649 0-2.991 1.343-2.991 2.992v83.02c0 1.649 1.342 2.991 2.991 2.991h143.57c1.649 0 2.991-1.342 2.991-2.991v-83.02c0-1.65-1.342-2.992-2.991-2.992z" fill="#690589" data-original="#690589" class="active-path" style="fill:#194C80" data-old_color="#690589"/></g><g><path d="m59.21 189.87c-1.105 0-2-.896-2-2v-12c0-1.105.895-2 2-2 1.104 0 2 .895 2 2v12c0 1.105-.896 2-2 2z" fill="#690589" data-original="#690589" class="active-path" style="fill:#194C80" data-old_color="#690589"/></g><g><circle cx="127.916" cy="205.818" fill="#fcc24c" r="10.381" data-original="#FCC24C" class=""/></g><g><path d="m127.916 218.198c-6.827 0-12.381-5.554-12.381-12.381s5.554-12.381 12.381-12.381 12.381 5.554 12.381 12.381c0 6.828-5.554 12.381-12.381 12.381zm0-20.762c-4.621 0-8.381 3.76-8.381 8.381s3.76 8.381 8.381 8.381 8.381-3.76 8.381-8.381-3.76-8.381-8.381-8.381z" fill="#690589" data-original="#690589" class="active-path" style="fill:#194C80" data-old_color="#690589"/></g></g></g> </svg>
