<?xml version="1.0"?>
<svg xmlns="http://www.w3.org/2000/svg" id="Layer_1" enable-background="new 0 0 256 256" height="512px" viewBox="0 0 256 256" width="512px" class=""><g><g><path d="m231.99 188.351h-219.553c-4.66 0-8.437-3.777-8.437-8.437v-135.179c0-4.66 3.777-8.437 8.437-8.437h219.553c4.66 0 8.437 3.777 8.437 8.437v135.179c0 4.66-3.778 8.437-8.437 8.437z" fill="#f4efed" data-original="#F4EFED" class=""/></g><g><path d="m231.99 36.298h-9.533c4.66 0 8.437 3.777 8.437 8.437v135.179c0 4.66-3.777 8.437-8.437 8.437h9.533c4.66 0 8.437-3.777 8.437-8.437v-135.179c0-4.66-3.778-8.437-8.437-8.437z" fill="#d6d1cf" data-original="#D6D1CF" class=""/></g><g><path d="m12.437 188.351h9.533c-4.66 0-8.437-3.777-8.437-8.437v-135.179c0-4.66 3.777-8.437 8.437-8.437h-9.533c-4.66 0-8.437 3.777-8.437 8.437v135.179c0 4.66 3.777 8.437 8.437 8.437z" fill="#fff" data-original="#FFF"/></g><g><path d="m199.339 219.678h-154.251v-11.301c0-4.66 3.777-8.437 8.437-8.437h137.377c4.66 0 8.437 3.777 8.437 8.437z" fill="#526faa" data-original="#526FAA"/></g><g><path d="m190.902 199.939h-9.533c4.66 0 8.437 3.777 8.437 8.437v11.301h9.533v-11.301c0-4.659-3.777-8.437-8.437-8.437z" fill="#34518c" data-original="#34518C"/></g><g><path d="m53.525 199.939h9.533c-4.66 0-8.437 3.777-8.437 8.437v11.301h-9.533v-11.301c0-4.659 3.777-8.437 8.437-8.437z" fill="#708dc8" data-original="#708DC8"/></g><g><path d="m76.933 188.351h90.56v11.588h-90.56z" fill="#34518c" data-original="#34518C"/></g><g><path d="m12.627 72.139c-1.104 0-2-.896-2-2v-12c0-1.104.896-2 2-2s2 .896 2 2v12c0 1.105-.896 2-2 2z" fill="#690589" data-original="#690589" class="active-path" style="fill:#04458F" data-old_color="#690589"/></g><g><path d="m199.339 221.678h-154.251c-1.104 0-2-.896-2-2v-11.301c0-5.755 4.682-10.437 10.437-10.437h137.378c5.755 0 10.437 4.682 10.437 10.437v11.301c-.001 1.104-.897 2-2.001 2zm-152.251-4h150.251v-9.301c0-3.549-2.888-6.437-6.437-6.437h-137.378c-3.549 0-6.437 2.888-6.437 6.437v9.301z" fill="#690589" data-original="#690589" class="active-path" style="fill:#04458F" data-old_color="#690589"/></g><g><path d="m167.493 201.939h-90.56c-1.104 0-2-.896-2-2v-11.588c0-1.105.896-2 2-2h90.56c1.105 0 2 .895 2 2v11.588c0 1.105-.895 2-2 2zm-88.559-4h86.56v-7.588h-86.56z" fill="#690589" data-original="#690589" class="active-path" style="fill:#04458F" data-old_color="#690589"/></g><g><path d="m231.99 190.351h-219.554c-5.754 0-10.436-4.682-10.436-10.437v-135.179c0-5.755 4.682-10.437 10.436-10.437h219.554c5.755 0 10.437 4.682 10.437 10.437v135.179c0 5.755-4.682 10.437-10.437 10.437zm-219.554-152.053c-3.548 0-6.436 2.888-6.436 6.437v135.179c0 3.549 2.888 6.437 6.436 6.437h219.554c3.549 0 6.437-2.888 6.437-6.437v-135.179c0-3.549-2.888-6.437-6.437-6.437z" fill="#690589" data-original="#690589" class="active-path" style="fill:#04458F" data-old_color="#690589"/></g><g><g><g><path d="m113.47 146.156-41.299-39.148 14.251-15.032 27.529 26.095 44.575-39.577 13.73 15.512z" fill="#fcc24c" data-original="#FCC24C" class=""/></g></g></g><g><g><g><path d="m113.47 148.155c-.495 0-.991-.184-1.376-.548l-41.299-39.147c-.385-.365-.609-.868-.623-1.398-.015-.53.183-1.044.548-1.429l14.251-15.032c.759-.802 2.025-.835 2.827-.076l26.196 24.832 43.203-38.359c.397-.353.915-.536 1.448-.501.53.032 1.025.273 1.378.671l13.73 15.513c.731.827.655 2.089-.171 2.822l-58.786 52.149c-.378.336-.853.503-1.326.503zm-38.472-41.222 38.517 36.509 55.92-49.606-11.079-12.517-43.077 38.248c-.777.69-1.952.669-2.704-.044l-26.078-24.719z" fill="#690589" data-original="#690589" class="active-path" style="fill:#04458F" data-old_color="#690589"/></g></g></g><g><path d="m246.507 219.702h-80.131c-3.034 0-5.493-2.459-5.493-5.493v-125.242c0-3.034 2.459-5.493 5.493-5.493h80.131c3.034 0 5.493 2.459 5.493 5.493v125.242c0 3.034-2.459 5.493-5.493 5.493z" fill="#f4efed" data-original="#F4EFED" class=""/></g><g><path d="m246.507 83.474h-6.356c3.034 0 5.493 2.459 5.493 5.493v125.242c0 3.034-2.459 5.493-5.493 5.493h6.356c3.034 0 5.493-2.459 5.493-5.493v-125.242c0-3.034-2.459-5.493-5.493-5.493z" fill="#d6d1cf" data-original="#D6D1CF" class=""/></g><g><path d="m167.238 214.209v-125.242c0-3.034 2.459-5.493 5.493-5.493h-6.356c-3.034 0-5.493 2.459-5.493 5.493v125.242c0 3.034 2.459 5.493 5.493 5.493h6.356c-3.033 0-5.493-2.459-5.493-5.493z" fill="#fff" data-original="#FFF"/></g><g><path d="m223.938 96.443h-34.993c-2.206 0-4.198-1.319-5.058-3.351l-4.074-9.619h53.258l-4.074 9.619c-.861 2.032-2.853 3.351-5.059 3.351z" fill="#526faa" data-original="#526FAA"/></g><g><path d="m246.507 221.702h-80.131c-4.132 0-7.493-3.361-7.493-7.493v-125.242c0-4.132 3.361-7.493 7.493-7.493h80.131c4.132 0 7.493 3.361 7.493 7.493v125.242c0 4.132-3.361 7.493-7.493 7.493zm-80.131-136.228c-1.926 0-3.493 1.567-3.493 3.493v125.242c0 1.926 1.567 3.493 3.493 3.493h80.131c1.926 0 3.493-1.567 3.493-3.493v-125.242c0-1.926-1.567-3.493-3.493-3.493z" fill="#690589" data-original="#690589" class="active-path" style="fill:#04458F" data-old_color="#690589"/></g><g><path d="m223.939 98.443h-34.994c-3.015 0-5.723-1.794-6.899-4.571l-4.074-9.619c-.262-.618-.196-1.326.175-1.885.37-.559.996-.896 1.667-.896h53.258c.671 0 1.297.336 1.667.896.371.559.436 1.267.175 1.885l-4.074 9.619c-1.179 2.777-3.887 4.571-6.901 4.571zm-41.107-12.969 2.896 6.838c.548 1.295 1.811 2.131 3.216 2.131h34.994c1.405 0 2.668-.836 3.216-2.131l2.896-6.838z" fill="#690589" data-original="#690589" class="active-path" style="fill:#04458F" data-old_color="#690589"/></g><g><circle cx="206.441" cy="204.322" fill="#526faa" r="7.69" data-original="#526FAA"/></g><g><path d="m206.441 214.012c-5.344 0-9.69-4.347-9.69-9.69s4.347-9.69 9.69-9.69c5.344 0 9.69 4.347 9.69 9.69.001 5.343-4.346 9.69-9.69 9.69zm0-15.381c-3.138 0-5.69 2.553-5.69 5.69 0 3.138 2.553 5.69 5.69 5.69 3.138 0 5.69-2.553 5.69-5.69.001-3.137-2.552-5.69-5.69-5.69z" fill="#690589" data-original="#690589" class="active-path" style="fill:#04458F" data-old_color="#690589"/></g><g><g><g><path d="m201.24 171.488-24.568-23.288 8.478-8.942 16.376 15.523 26.517-23.544 8.168 9.228z" fill="#fcc24c" data-original="#FCC24C" class=""/></g></g></g><g><g><g><path d="m201.24 173.488c-.495 0-.991-.184-1.376-.548l-24.568-23.288c-.385-.365-.609-.868-.623-1.398-.015-.53.183-1.044.548-1.429l8.477-8.942c.759-.802 2.026-.835 2.827-.076l15.044 14.261 25.145-22.326c.398-.352.917-.531 1.448-.501.53.032 1.025.273 1.378.671l8.168 9.228c.731.827.655 2.089-.171 2.822l-34.971 31.023c-.377.336-.852.503-1.326.503zm-21.741-25.364 21.786 20.65 32.104-28.48-5.517-6.232-25.02 22.214c-.777.689-1.952.669-2.704-.044l-14.925-14.148z" fill="#690589" data-original="#690589" class="active-path" style="fill:#04458F" data-old_color="#690589"/></g></g></g></g> </svg>
