<?xml version="1.0"?>
<svg xmlns="http://www.w3.org/2000/svg" id="Layer_1" enable-background="new 0 0 256 256" height="512px" viewBox="0 0 256 256" width="512px" class=""><g><g><g><path d="m49.157 112.473c-1.104 0-2-.896-2-2v-22.359c0-6.617 5.383-12 12-12h32.153c1.104 0 2 .896 2 2s-.896 2-2 2h-32.153c-4.411 0-8 3.589-8 8v22.359c0 1.104-.895 2-2 2z" fill="#690589" data-original="#690589" class="" style="fill:#04458F" data-old_color="#690589"/></g><g><path d="m118.043 60.286v-18.77h20.004v18.77h13.99c6.997.009 12.661 5.754 12.652 12.751v16.872h-73.379v-16.977c.009-6.996 5.721-12.661 12.718-12.652z" fill="#ff4397" data-original="#FF4397" class="" style="fill:#FB5252" data-old_color="#ff4397"/></g><g><path d="m118.043 41.515h20.004v20.115c0 5.524-4.478 10.002-10.002 10.002-5.524 0-10.002-4.478-10.002-10.002z" fill="#ff9f70" data-original="#FF9F70" class="" style="fill:#FFEEB6" data-old_color="#ff9f70"/></g><g><path d="m128.045 73.632c-6.618 0-12.002-5.384-12.002-12.002v-20.114c0-1.104.896-2 2-2h20.004c1.105 0 2 .896 2 2v20.114c0 6.618-5.384 12.002-12.002 12.002zm-8.002-30.116v18.114c0 4.412 3.59 8.002 8.002 8.002 4.413 0 8.002-3.59 8.002-8.002v-18.114z" fill="#690589" data-original="#690589" class="" style="fill:#04458F" data-old_color="#690589"/></g><g><g><path d="m152.038 60.286h-6.321c6.997.009 12.661 5.749 12.652 12.745v16.878h6.321v-16.873c.009-6.996-5.656-12.741-12.652-12.75z" fill="#e12579" data-original="#E12579" class="active-path" style="fill:#C12020" data-old_color="#e12579"/></g></g><g><g><path d="m104.028 60.28 6.321.006c-6.997-.009-12.709 5.656-12.718 12.652v16.971h-6.321v-16.977c.009-6.996 5.721-12.661 12.718-12.652z" fill="#ff61b5" data-original="#FF61B5" class="" style="fill:#C12020" data-old_color="#ff61b5"/></g></g><g><path d="m164.69 91.909h-73.38c-1.104 0-2-.896-2-2v-16.977c.011-8.084 6.604-14.652 14.702-14.652h.019l12.013.005v-16.769c0-1.104.896-2 2-2h20.004c1.105 0 2 .896 2 2v16.77h11.99c3.919.005 7.603 1.549 10.374 4.348 2.764 2.791 4.283 6.486 4.278 10.406v16.87c0 1.104-.896 1.999-2 1.999zm-71.38-4h69.38v-14.872c.004-2.859-1.104-5.553-3.12-7.588-2.016-2.036-4.692-3.159-7.535-3.163h-13.988c-1.104 0-2-.896-2-2v-16.77h-16.004v16.77c0 .531-.211 1.04-.586 1.415s-.884.585-1.414.585c0 0 0 0-.001 0l-14.015-.006c-.004 0-.009 0-.014 0-5.896 0-10.695 4.777-10.703 10.655z" fill="#690589" data-original="#690589" class="" style="fill:#04458F" data-old_color="#690589"/></g><g><path d="m196.843 218.208h-34.485c-1.105 0-2-.895-2-2 0-1.104.895-2 2-2h34.485c4.411 0 8-3.589 8-8v-20.681c0-1.104.895-2 2-2 1.104 0 2 .896 2 2v20.681c0 6.617-5.383 12-12 12z" fill="#690589" data-original="#690589" class="" style="fill:#04458F" data-old_color="#690589"/></g><g><ellipse cx="128" cy="216.208" fill="#fcc24c" rx="34.357" ry="34.357" transform="matrix(.493 -.87 .87 .493 -123.21 221.068)" data-original="#FCC24C" class=""/></g><g><path d="m248.777 168.557h-83.869c-1.78 0-3.223-1.443-3.223-3.223v-51.638c0-1.78 1.443-3.223 3.223-3.223h83.869c1.78 0 3.223 1.443 3.223 3.223v51.638c0 1.78-1.443 3.223-3.223 3.223z" fill="#f4efed" data-original="#F4EFED"/></g><g><path d="m248.777 110.473h-8.098c1.78 0 3.223 1.443 3.223 3.223v51.638c0 1.78-1.443 3.223-3.223 3.223h8.098c1.78 0 3.223-1.443 3.223-3.223v-51.638c0-1.78-1.443-3.223-3.223-3.223z" fill="#d6d1cf" data-original="#D6D1CF"/></g><g><path d="m164.908 168.557h8.098c-1.78 0-3.223-1.443-3.223-3.223v-51.638c0-1.78 1.443-3.223 3.223-3.223h-8.098c-1.78 0-3.223 1.443-3.223 3.223v51.638c.001 1.78 1.444 3.223 3.223 3.223z" fill="#fff" data-original="#FFF"/></g><g><path d="m236.305 185.527h-58.924v-6.319c0-1.78 1.443-3.223 3.223-3.223h52.478c1.78 0 3.223 1.443 3.223 3.223z" fill="#ff4397" data-original="#FF4397" class="" style="fill:#FB5252" data-old_color="#ff4397"/></g><g><path d="m233.082 175.986h-6.908c1.78 0 3.223 1.443 3.223 3.223v6.319h6.908v-6.319c0-1.78-1.443-3.223-3.223-3.223z" fill="#e12579" data-original="#E12579" class="active-path" style="fill:#C12020" data-old_color="#e12579"/></g><g><path d="m180.604 175.986h6.908c-1.78 0-3.223 1.443-3.223 3.223v6.319h-6.908v-6.319c0-1.78 1.443-3.223 3.223-3.223z" fill="#ff61b5" data-original="#FF61B5" class="" style="fill:#C12020" data-old_color="#ff61b5"/></g><g><path d="m189.546 168.557h34.594v7.429h-34.594z" fill="#ff4397" transform="matrix(-1 0 0 -1 413.686 344.542)" data-original="#FF4397" class="" style="fill:#FB5252" data-old_color="#ff4397"/></g><g><path d="m236.305 187.527h-58.924c-1.105 0-2-.895-2-2v-6.319c0-2.88 2.343-5.223 5.223-5.223h52.477c2.88 0 5.223 2.343 5.223 5.223v6.319c.001 1.105-.895 2-1.999 2zm-56.924-4h54.924v-4.319c0-.674-.549-1.223-1.223-1.223h-52.477c-.674 0-1.223.548-1.223 1.223v4.319z" fill="#690589" data-original="#690589" class="" style="fill:#04458F" data-old_color="#690589"/></g><g><path d="m224.14 177.986h-34.594c-1.104 0-2-.895-2-2v-7.429c0-1.104.896-2 2-2h34.594c1.104 0 2 .896 2 2v7.429c0 1.104-.896 2-2 2zm-32.594-4h30.594v-3.429h-30.594z" fill="#690589" data-original="#690589" class="" style="fill:#04458F" data-old_color="#690589"/></g><g><path d="m248.777 170.557h-83.868c-2.88 0-5.223-2.343-5.223-5.223v-51.638c0-2.88 2.343-5.223 5.223-5.223h83.868c2.88 0 5.223 2.343 5.223 5.223v51.638c0 2.88-2.343 5.223-5.223 5.223zm-83.868-58.084c-.674 0-1.223.549-1.223 1.223v51.638c0 .674.549 1.223 1.223 1.223h83.868c.674 0 1.223-.548 1.223-1.223v-51.638c0-.674-.549-1.223-1.223-1.223z" fill="#690589" data-original="#690589" class="" style="fill:#04458F" data-old_color="#690589"/></g><g><path d="m144.306 140.243v-7.757l5.194 3.878 5.194 3.879-5.194 3.879-5.194 3.878z" fill="#ff4397" data-original="#FF4397" class="" style="fill:#FB5252" data-old_color="#ff4397"/></g><g><g><path d="m144.307 150c-.306 0-.613-.07-.896-.212-.676-.339-1.104-1.031-1.104-1.788v-15.514c0-.757.427-1.449 1.104-1.788.676-.34 1.485-.268 2.093.186l10.387 7.757c.505.377.803.972.803 1.603s-.298 1.225-.803 1.602l-10.387 7.757c-.353.263-.774.397-1.197.397zm2-13.524v7.535l5.045-3.768z" fill="#690589" data-original="#690589" class="" style="fill:#04458F" data-old_color="#690589"/></g></g><g><path d="m111.694 140.243v7.757l-5.194-3.879-5.194-3.878 5.194-3.879 5.194-3.878z" fill="#ff4397" data-original="#FF4397" class="" style="fill:#FB5252" data-old_color="#ff4397"/></g><g><g><path d="m111.693 150c-.423 0-.844-.134-1.197-.398l-10.387-7.757c-.505-.378-.803-.972-.803-1.602 0-.631.298-1.225.803-1.603l10.387-7.757c.607-.454 1.416-.525 2.093-.186.676.339 1.104 1.031 1.104 1.788v15.515c0 .757-.427 1.449-1.104 1.788-.283.142-.59.212-.896.212zm-7.044-9.757 5.044 3.768v-7.535z" fill="#690589" data-original="#690589" class="" style="fill:#04458F" data-old_color="#690589"/></g></g><g><path d="m91.091 168.557h-83.868c-1.78 0-3.223-1.443-3.223-3.223v-51.638c0-1.78 1.443-3.223 3.223-3.223h83.869c1.78 0 3.223 1.443 3.223 3.223v51.638c-.001 1.78-1.444 3.223-3.224 3.223z" fill="#f4efed" data-original="#F4EFED"/></g><g><path d="m91.091 110.473h-8.098c1.78 0 3.223 1.443 3.223 3.223v51.638c0 1.78-1.443 3.223-3.223 3.223h8.098c1.78 0 3.223-1.443 3.223-3.223v-51.638c0-1.78-1.443-3.223-3.223-3.223z" fill="#d6d1cf" data-original="#D6D1CF"/></g><g><path d="m7.223 168.557h8.098c-1.78 0-3.223-1.443-3.223-3.223v-51.638c0-1.78 1.443-3.223 3.223-3.223h-8.098c-1.78 0-3.223 1.443-3.223 3.223v51.638c0 1.78 1.443 3.223 3.223 3.223z" fill="#fff" data-original="#FFF"/></g><g><path d="m78.619 185.527h-58.924v-6.319c0-1.78 1.443-3.223 3.223-3.223h52.478c1.78 0 3.223 1.443 3.223 3.223z" fill="#526faa" data-original="#526FAA" class=""/></g><g><path d="m75.396 175.986h-6.908c1.78 0 3.223 1.443 3.223 3.223v6.319h6.908v-6.319c0-1.78-1.443-3.223-3.223-3.223z" fill="#34518c" data-original="#34518C" class=""/></g><g><path d="m22.918 175.986h6.908c-1.78 0-3.223 1.443-3.223 3.223v6.319h-6.908v-6.319c0-1.78 1.443-3.223 3.223-3.223z" fill="#708dc8" data-original="#708DC8"/></g><g><path d="m31.86 168.557h34.594v7.429h-34.594z" fill="#526faa" data-original="#526FAA" class=""/></g><g><path d="m78.619 187.527h-58.924c-1.104 0-2-.895-2-2v-6.319c0-2.88 2.343-5.223 5.223-5.223h52.478c2.88 0 5.223 2.343 5.223 5.223v6.319c0 1.105-.895 2-2 2zm-56.924-4h54.924v-4.319c0-.674-.549-1.223-1.223-1.223h-52.477c-.674 0-1.223.548-1.223 1.223v4.319z" fill="#690589" data-original="#690589" class="" style="fill:#04458F" data-old_color="#690589"/></g><g><path d="m66.454 177.986h-34.594c-1.104 0-2-.895-2-2v-7.429c0-1.104.896-2 2-2h34.594c1.104 0 2 .896 2 2v7.429c0 1.104-.895 2-2 2zm-32.594-4h30.594v-3.429h-30.594z" fill="#690589" data-original="#690589" class="" style="fill:#04458F" data-old_color="#690589"/></g><g><path d="m91.091 170.557h-83.868c-2.88 0-5.223-2.343-5.223-5.223v-51.638c0-2.88 2.343-5.223 5.223-5.223h83.869c2.88 0 5.223 2.343 5.223 5.223v51.638c-.001 2.88-2.344 5.223-5.224 5.223zm-83.868-58.084c-.674 0-1.223.549-1.223 1.223v51.638c0 .674.548 1.223 1.223 1.223h83.869c.674 0 1.223-.548 1.223-1.223v-51.638c0-.674-.549-1.223-1.223-1.223z" fill="#690589" data-original="#690589" class="" style="fill:#04458F" data-old_color="#690589"/></g><g><path d="m12.098 143.312c-1.104 0-2-.895-2-2v-12c0-1.105.896-2 2-2s2 .895 2 2v12c0 1.105-.896 2-2 2z" fill="#690589" data-original="#690589" class="" style="fill:#04458F" data-old_color="#690589"/></g><g><path d="m144.307 142.243h-32.613c-1.104 0-2-.896-2-2 0-1.105.895-2 2-2h32.613c1.105 0 2 .895 2 2 0 1.104-.896 2-2 2z" fill="#690589" data-original="#690589" class="" style="fill:#04458F" data-old_color="#690589"/></g><g><path d="m128.019 58.077c-10.951 0-19.828-8.993-19.828-20.086v-13.905c-.001-11.093 8.877-20.086 19.828-20.086 10.951 0 19.828 8.993 19.828 20.086v13.905c0 11.093-8.878 20.086-19.828 20.086z" fill="#ff9f70" data-original="#FF9F70" class="" style="fill:#FFEEB6" data-old_color="#ff9f70"/></g><g><path d="m128.019 4c-.762 0-1.513.048-2.253.133 9.889 1.134 17.575 9.632 17.575 19.953v13.905c0 10.321-7.686 18.819-17.575 19.953.74.085 1.491.133 2.253.133 10.951 0 19.828-8.993 19.828-20.086v-13.905c0-11.093-8.878-20.086-19.828-20.086z" fill="#e18152" data-original="#E18152"/></g><g><path d="m128.019 4c.762 0 1.513.048 2.253.133-9.889 1.134-17.575 9.632-17.575 19.953v13.905c0 10.321 7.686 18.819 17.575 19.953-.74.085-1.491.133-2.253.133-10.951 0-19.828-8.993-19.828-20.086v-13.905c-.001-11.093 8.877-20.086 19.828-20.086z" fill="#ffbd8e" data-original="#FFBD8E" class=""/></g><g><path d="m128.019 60.077c-12.036 0-21.828-9.908-21.828-22.085v-13.906c-.001-12.178 9.791-22.086 21.828-22.086 12.036 0 21.828 9.908 21.828 22.086v13.905c0 12.178-9.792 22.086-21.828 22.086zm0-54.077c-9.831 0-17.828 8.113-17.828 18.086v13.905c0 9.972 7.998 18.085 17.828 18.085 9.831 0 17.828-8.113 17.828-18.085v-13.905c0-9.973-7.998-18.086-17.828-18.086z" fill="#690589" data-original="#690589" class="" style="fill:#04458F" data-old_color="#690589"/></g><g><path d="m132.494 35.437h-8.951l-1.805 4.789c-.332.811-1.105 1.289-1.916 1.289-.258 0-.479-.037-.7-.111-1.069-.405-1.584-1.584-1.216-2.652l8.141-21.698c.332-.81 1.142-1.325 1.953-1.288.847-.037 1.621.479 1.952 1.288l8.141 21.698c.368 1.068-.147 2.247-1.215 2.652-.184.074-.442.111-.7.111-.81 0-1.584-.479-1.879-1.289zm-1.51-4.052-2.984-7.919-2.984 7.919z" fill="#690589" data-original="#690589" class="" style="fill:#04458F" data-old_color="#690589"/></g><g><path d="m128 181.85c-1.012 0-2.011.053-3 .139 17.569 1.521 31.358 16.256 31.358 34.219s-13.788 32.698-31.358 34.219c.989.086 1.988.138 3 .138 18.975 0 34.358-15.382 34.358-34.357-.001-18.975-15.383-34.358-34.358-34.358z" fill="#dea42e" data-original="#DEA42E" class=""/></g><g><path d="m128 250.565c1.012 0 2.011-.053 3-.138-17.569-1.521-31.357-16.256-31.357-34.219s13.788-32.698 31.357-34.219c-.989-.086-1.988-.139-3-.139-18.975 0-34.357 15.382-34.357 34.357 0 18.976 15.382 34.358 34.357 34.358z" fill="#fce06a" data-original="#FCE06A" class=""/></g><g><path d="m128 252.565c-20.047 0-36.357-16.31-36.357-36.357 0-20.048 16.31-36.358 36.357-36.358s36.357 16.31 36.357 36.358c0 20.047-16.31 36.357-36.357 36.357zm0-68.715c-17.842 0-32.357 14.516-32.357 32.358s14.516 32.357 32.357 32.357 32.357-14.516 32.357-32.357c0-17.842-14.515-32.358-32.357-32.358z" fill="#690589" data-original="#690589" class="" style="fill:#04458F" data-old_color="#690589"/></g><g><path d="m129.809 219.298v3.138c0 1.352-1.014 2.366-2.366 2.366-1.255 0-2.366-1.014-2.366-2.366v-5.021c0-.048.048-.048.048-.097-.048-.048-.048-.048-.048-.097 0-1.255 1.11-2.366 2.366-2.366 3.042 0 5.504-2.413 5.504-5.407 0-3.041-2.462-5.407-5.504-5.407-1.979 0-3.717 1.062-4.635 2.655-.676 1.159-2.125 1.545-3.283.869-1.111-.676-1.497-2.076-.821-3.235 1.738-2.993 5.021-5.021 8.738-5.021 5.6 0 10.187 4.538 10.187 10.138.001 4.781-3.331 8.788-7.82 9.851zm0 10.572v.869c0 1.352-1.014 2.366-2.366 2.366-1.255 0-2.366-1.014-2.366-2.366v-.869c0-1.303 1.11-2.366 2.366-2.366 1.352.001 2.366 1.063 2.366 2.366z" fill="#690589" data-original="#690589" class="" style="fill:#04458F" data-old_color="#690589"/></g></g></g> </svg>
